<?xml version="1.0" standalone="no"?>
<!DOCTYPE svg PUBLIC "-//W3C//DTD SVG 20010904//EN"
 "http://www.w3.org/TR/2001/REC-SVG-20010904/DTD/svg10.dtd">
<svg version="1.0" xmlns="http://www.w3.org/2000/svg"
 width="852.000000pt" height="856.000000pt" viewBox="0 0 852.000000 856.000000"
 preserveAspectRatio="xMidYMid meet">
<metadata>
Created by potrace 1.15, written by Peter Selinger 2001-2017
</metadata>
<g transform="translate(0.000000,856.000000) scale(0.100000,-0.100000)"
fill="#000000" stroke="none">
<path d="M4015 8519 c-259 -18 -288 -24 -240 -49 14 -8 25 -21 23 -29 -1 -9 1
-26 5 -37 4 -12 8 -38 9 -58 1 -20 5 -39 10 -42 5 -3 6 -14 3 -25 -5 -15 -1
-19 17 -20 l23 0 -22 -9 c-13 -5 -23 -14 -23 -20 0 -12 2 -12 34 0 30 11 32 5
10 -38 -8 -17 -15 -55 -15 -84 0 -159 -12 -228 -41 -228 -5 0 -21 -9 -36 -20
-15 -11 -40 -21 -57 -23 -16 -2 -45 -12 -64 -22 -19 -9 -58 -25 -87 -35 -66
-23 -246 -141 -276 -180 -12 -17 -26 -30 -31 -30 -20 0 -69 -44 -87 -78 -25
-49 -73 -99 -78 -83 -2 7 0 17 6 23 7 7 3 25 -13 57 -12 25 -44 102 -70 171
-26 69 -58 150 -71 180 -12 30 -26 66 -29 80 -4 14 -13 39 -20 55 -46 113 -85
218 -85 231 0 20 -48 37 -87 29 -38 -7 -40 -11 -15 -39 10 -12 33 -59 51 -105
18 -45 43 -107 57 -136 13 -30 24 -56 24 -59 0 -2 16 -39 35 -80 19 -42 35
-79 35 -82 0 -4 13 -34 29 -68 46 -97 61 -133 61 -145 0 -6 5 -11 10 -11 6 0
10 -7 10 -15 0 -16 17 -50 39 -77 12 -15 10 -25 -13 -72 -43 -88 -48 -88 -94
6 -43 87 -72 150 -129 283 -19 44 -43 98 -53 120 -10 22 -28 63 -40 90 -13 28
-37 82 -55 120 -17 39 -40 90 -50 115 -26 62 -43 80 -77 80 -26 0 -108 -34
-108 -45 0 -2 15 -1 33 1 l32 5 199 -404 c109 -222 208 -426 220 -451 12 -26
25 -44 29 -40 4 4 7 2 7 -4 0 -18 -37 -52 -57 -53 -40 -1 -122 -18 -185 -37
-38 -11 -68 -16 -68 -11 0 5 7 9 15 9 16 0 20 15 7 24 -5 3 -29 40 -54 83 -65
110 -210 361 -314 542 -49 85 -101 163 -116 174 -27 20 -28 20 -68 2 -44 -20
-50 -30 -22 -37 10 -3 47 -52 82 -109 81 -133 239 -385 352 -563 l89 -139 -7
-67 c-4 -44 -2 -81 6 -104 18 -55 4 -56 -20 -3 -11 25 -67 116 -123 201 -106
161 -292 448 -403 623 -35 55 -71 104 -80 107 -8 3 -33 -6 -56 -20 l-41 -26
26 -22 c13 -11 84 -109 157 -216 73 -107 156 -226 185 -265 28 -38 73 -101
100 -140 26 -38 53 -74 59 -80 6 -5 24 -32 40 -58 15 -27 34 -51 42 -54 8 -3
14 -11 14 -18 0 -7 18 -35 40 -61 22 -27 40 -54 40 -61 0 -7 4 -13 9 -13 5 0
16 -15 24 -33 9 -18 39 -68 67 -110 76 -118 122 -211 127 -261 3 -25 2 -46 -3
-46 -10 0 -80 85 -134 165 -19 28 -74 102 -121 165 -72 97 -260 356 -384 530
-17 25 -75 104 -127 175 -52 72 -116 162 -143 200 -27 39 -54 77 -62 85 -7 8
-21 25 -31 38 l-17 23 -43 -32 c-43 -31 -43 -32 -23 -50 11 -10 68 -82 127
-160 94 -123 170 -221 371 -474 27 -33 54 -66 61 -75 30 -36 181 -229 216
-277 21 -29 42 -53 47 -53 5 0 9 -6 9 -13 0 -8 13 -27 30 -43 16 -16 30 -33
30 -37 0 -13 113 -142 127 -145 7 -2 13 -8 13 -13 0 -5 9 -9 19 -9 11 0 23 -5
27 -11 4 -7 -5 -10 -27 -8 -19 1 -41 -1 -49 -4 -8 -3 -39 -10 -68 -16 -28 -6
-70 -22 -93 -36 l-40 -26 -22 28 c-12 15 -105 120 -206 233 -101 113 -198 221
-215 240 -90 102 -219 245 -341 380 -28 30 -77 86 -110 124 -33 38 -87 98
-121 133 -33 35 -58 65 -56 68 3 3 1 5 -4 5 -13 0 -84 -67 -84 -79 0 -6 6 -11
13 -11 8 0 36 -24 63 -52 112 -121 391 -411 824 -857 9 -9 56 -60 105 -113 48
-54 94 -98 102 -98 24 0 14 -18 -23 -40 -40 -25 -37 -26 -56 20 -35 84 -96
128 -222 160 -68 17 -79 17 -187 3 -96 -13 -120 -20 -153 -44 -42 -31 -79 -39
-70 -16 3 9 -24 37 -68 73 -40 32 -166 135 -280 229 -113 93 -232 191 -265
216 -32 26 -74 61 -93 78 -19 17 -43 34 -53 37 -13 4 -17 12 -14 25 3 10 4 19
2 19 -4 0 -108 -126 -160 -194 -19 -25 -35 -53 -35 -60 0 -8 -4 -18 -10 -21
-15 -9 -12 -25 3 -19 7 2 32 -9 56 -26 24 -18 77 -55 119 -84 43 -29 120 -83
172 -119 52 -36 179 -123 282 -192 103 -70 192 -133 199 -141 14 -17 0 -100
-16 -96 -5 1 -129 80 -275 177 -605 398 -582 384 -603 374 -28 -15 -33 -2 -10
24 11 12 28 36 38 52 16 28 15 28 -13 -5 -47 -53 -193 -296 -196 -325 -3 -25
7 -34 19 -15 3 5 26 -3 53 -19 26 -15 128 -72 227 -126 99 -54 200 -109 225
-123 25 -13 142 -76 260 -139 202 -108 251 -138 250 -152 -1 -3 -11 -19 -24
-35 l-24 -28 -193 100 c-107 55 -228 118 -269 139 -41 22 -156 82 -255 133
-304 156 -309 159 -301 190 3 8 7 26 11 40 3 14 -14 -12 -39 -57 -42 -78 -55
-126 -31 -117 6 3 92 -34 191 -82 98 -47 215 -103 259 -124 44 -21 139 -66
210 -100 72 -34 176 -84 233 -111 95 -45 128 -72 105 -88 -5 -3 -12 -14 -16
-23 -11 -29 -17 -27 -207 60 -36 16 -87 39 -115 52 -27 12 -81 37 -120 55 -99
47 -180 83 -340 156 -77 34 -164 75 -192 90 -44 22 -54 24 -64 13 -7 -8 -14
-12 -17 -9 -3 3 -19 -22 -34 -56 -19 -41 -25 -66 -19 -72 7 -7 14 -1 20 16 6
15 14 27 19 27 5 0 99 -38 208 -84 289 -121 670 -280 736 -306 32 -12 61 -27
66 -34 11 -13 4 -86 -8 -86 -9 0 -184 65 -215 80 -11 5 -63 26 -115 45 -52 20
-108 42 -125 49 -16 7 -91 37 -165 66 -74 30 -200 79 -279 111 -80 32 -149 55
-154 52 -6 -4 -8 6 -3 27 30 152 -139 -334 -199 -569 -87 -346 -125 -660 -125
-1046 0 -269 9 -410 41 -630 148 -1029 661 -1961 1454 -2640 553 -474 1251
-810 1958 -945 286 -54 420 -65 812 -65 299 0 394 4 495 18 551 78 918 186
1368 402 94 46 172 86 172 88 0 3 -7 4 -15 3 -16 -1 -47 53 -255 459 -266 519
-261 510 -287 508 -37 -3 -27 14 12 19 19 2 54 -3 77 -12 41 -15 44 -20 181
-270 216 -397 318 -582 344 -623 l24 -38 47 27 c52 30 77 49 50 39 -12 -5 -22
3 -36 32 -16 31 -82 146 -122 213 -53 87 -90 151 -90 156 0 3 -13 24 -28 47
-16 23 -61 100 -101 170 -40 71 -89 154 -107 185 -38 63 -42 77 -16 62 9 -5
36 -14 59 -20 33 -8 49 -20 71 -53 33 -49 401 -647 419 -680 7 -13 21 -31 31
-40 17 -16 21 -15 59 10 l41 26 -56 86 c-30 47 -143 219 -251 381 -108 162
-197 298 -199 303 -5 11 36 8 43 -3 3 -5 21 -10 39 -10 19 0 40 -8 50 -19 17
-19 212 -297 330 -472 38 -56 77 -104 87 -106 14 -4 17 -9 9 -18 -8 -9 -6 -14
5 -19 8 -3 15 -15 15 -27 0 -17 3 -19 14 -10 11 9 15 9 18 0 3 -9 17 -3 41 16
21 17 33 33 28 40 -4 5 -45 62 -91 125 -46 63 -141 192 -210 285 -69 94 -136
184 -148 202 l-22 32 32 -2 c18 -1 43 2 55 6 24 9 37 -6 310 -363 90 -117 124
-154 138 -152 16 3 17 2 5 -13 -11 -14 -10 -18 9 -31 22 -16 22 -17 4 -37 -10
-12 8 1 40 27 31 27 57 51 57 53 0 3 -26 35 -57 72 -32 37 -74 87 -93 111 -19
24 -47 58 -61 75 -14 16 -33 39 -41 50 -17 21 -96 118 -165 202 -46 55 -52 73
-28 73 9 0 29 6 44 14 32 17 6 42 252 -244 174 -203 192 -227 184 -241 -5 -7
13 2 38 19 58 41 73 41 24 1 -39 -32 -47 -53 -23 -62 15 -6 89 64 92 88 1 8
-5 15 -15 15 -9 0 -31 18 -48 40 -17 23 -55 67 -84 98 -30 32 -88 95 -129 141
-41 46 -101 112 -132 145 -32 34 -58 64 -58 67 0 7 67 39 84 39 11 0 173 -166
394 -402 l34 -36 -26 -35 c-14 -18 -23 -37 -19 -40 3 -4 11 3 17 15 6 12 34
37 61 56 l50 35 -41 -39 c-23 -21 -47 -50 -54 -64 -7 -15 14 1 54 40 36 35 66
68 66 73 0 10 55 67 65 67 4 0 12 6 18 13 7 7 30 32 52 56 22 23 33 40 25 36
-10 -3 -31 9 -55 30 -51 45 -175 157 -189 170 -6 6 -71 64 -143 129 -73 65
-133 122 -133 128 0 8 19 39 46 76 1 2 62 -47 136 -109 73 -63 192 -164 265
-226 l132 -112 -24 -35 c-14 -20 -23 -36 -21 -36 5 0 116 136 116 143 0 3 -36
34 -81 69 -44 34 -91 72 -103 83 -12 11 -82 67 -156 125 -74 58 -154 123 -177
144 l-44 39 28 29 c34 36 50 35 95 -2 20 -17 77 -61 125 -98 49 -37 147 -111
218 -166 188 -143 169 -135 201 -86 18 27 24 44 17 48 -15 10 -56 40 -127 93
-34 25 -108 78 -166 119 -58 41 -109 78 -115 82 -48 37 -76 58 -113 82 -54 37
-58 43 -39 64 9 9 19 29 22 44 7 26 25 40 25 19 0 -5 88 -69 195 -143 108 -73
239 -163 293 -200 53 -37 99 -67 102 -67 11 -1 51 82 43 88 -15 13 -261 173
-527 344 -115 74 -112 70 -85 144 10 27 -6 36 394 -214 118 -74 284 -173 289
-173 7 0 46 66 46 77 0 5 -10 15 -22 22 -13 6 -32 17 -43 24 -67 41 -147 87
-150 87 -3 0 -35 19 -72 42 -67 40 -96 57 -170 99 -222 124 -265 152 -259 173
2 12 9 35 13 53 l8 31 70 -42 c39 -24 117 -69 175 -100 371 -203 511 -278 514
-275 2 2 13 22 24 44 l20 41 -171 87 c-95 48 -201 103 -237 121 -36 19 -78 41
-95 49 -195 94 -315 161 -315 176 0 9 -6 41 -14 71 -8 30 -13 57 -11 58 2 2
12 -6 22 -18 23 -29 835 -430 869 -430 2 0 13 18 24 40 l20 39 -22 15 c-13 8
-48 24 -78 36 -30 11 -75 30 -100 42 -49 23 -138 63 -270 120 -25 11 -67 31
-95 43 -132 61 -365 165 -370 165 -3 0 -1 -9 5 -20 8 -15 8 -20 -1 -20 -17 0
-38 31 -39 57 0 12 -6 23 -12 26 -10 3 -10 9 -2 24 9 15 8 23 -2 38 -8 10 -14
25 -14 33 0 13 2 13 18 0 18 -17 136 -69 442 -198 107 -45 224 -95 260 -110
111 -49 312 -130 320 -130 4 0 14 18 23 40 15 39 15 41 -6 54 -12 8 -40 19
-62 26 -22 6 -59 20 -82 31 -24 10 -47 19 -53 19 -6 0 -18 4 -28 10 -9 5 -66
28 -127 51 -60 22 -119 45 -130 50 -11 5 -45 18 -75 29 -30 12 -68 27 -85 34
-16 7 -57 23 -90 35 -85 32 -135 52 -170 67 -16 7 -49 20 -72 29 -51 20 -53
34 -13 68 30 25 31 26 78 10 26 -9 52 -19 57 -23 6 -4 21 -11 35 -15 33 -9
259 -90 435 -155 77 -29 208 -76 292 -105 l152 -53 14 43 c18 52 29 45 -178
111 -82 26 -154 50 -160 54 -5 4 -26 11 -45 15 -19 4 -39 10 -45 13 -5 4 -14
7 -20 8 -5 1 -135 43 -287 95 l-277 92 24 41 c14 23 31 40 38 39 6 -1 145 -43
307 -93 280 -87 688 -210 695 -210 3 0 17 74 16 87 0 4 -6 8 -13 9 -54 11
-220 57 -249 68 -20 8 -39 12 -43 9 -3 -3 -11 -1 -18 4 -7 6 -101 34 -208 62
-301 80 -454 124 -464 132 -8 7 8 63 24 82 3 4 166 -33 361 -82 195 -49 406
-102 469 -117 63 -14 129 -30 147 -34 32 -8 32 -7 41 34 5 22 8 42 6 44 -3 4
-202 53 -229 56 -11 1 -27 5 -35 8 -8 3 -55 14 -105 23 -49 9 -112 23 -140 30
-70 18 -173 40 -230 49 -11 2 -69 15 -130 29 -60 15 -119 28 -130 29 -17 3
-20 11 -19 51 0 25 2 49 5 51 2 2 47 -4 99 -15 52 -11 163 -33 245 -49 83 -16
251 -49 375 -73 327 -65 318 -64 325 -34 13 48 3 61 -55 74 -30 7 -75 14 -100
16 -25 3 -52 7 -60 11 -8 3 -28 8 -45 10 -16 2 -64 9 -105 16 -41 7 -88 14
-105 16 -55 7 -279 44 -330 54 -27 5 -97 17 -154 26 l-103 17 6 45 c3 25 8 47
10 49 2 3 35 0 72 -6 392 -57 497 -70 505 -66 5 3 17 2 26 -4 10 -5 41 -12 68
-15 28 -4 127 -17 220 -30 183 -25 185 -25 185 30 l0 30 -82 11 c-45 6 -94 9
-110 8 -15 -2 -28 0 -28 5 0 5 -8 8 -17 8 -17 0 -93 8 -153 17 -56 8 -188 24
-225 28 -22 2 -133 15 -247 28 l-208 24 0 25 c0 63 8 70 71 70 32 0 80 -4 106
-10 26 -5 107 -14 178 -19 72 -6 227 -19 345 -30 384 -35 372 -35 381 -20 5 8
9 26 9 41 0 33 -6 35 -155 44 -167 10 -175 10 -255 17 -41 4 -124 9 -185 12
-60 3 -150 8 -200 11 -49 4 -137 9 -195 13 l-105 6 0 40 c0 37 3 41 35 52 20
7 65 10 105 7 155 -9 727 -33 838 -34 l117 -1 0 41 0 41 -47 -1 c-52 -1 -509
7 -771 14 -90 3 -166 7 -169 10 -3 3 10 26 28 50 l34 46 220 5 c121 2 329 5
463 6 l242 2 0 43 c0 41 -2 44 -22 39 -13 -3 -124 -7 -248 -10 -124 -2 -314
-7 -422 -11 -193 -6 -198 -6 -198 14 0 11 7 36 15 56 12 29 21 36 43 36 46 1
511 29 637 40 66 5 135 10 153 10 27 0 32 4 32 24 0 31 -10 57 -20 51 -4 -2
-44 -5 -88 -6 -45 -1 -79 -5 -76 -10 3 -5 0 -9 -5 -9 -6 0 -11 5 -11 11 0 6
-9 8 -20 4 -11 -4 -46 -8 -78 -10 -129 -10 -439 -35 -499 -41 l-53 -5 0 59 0
59 78 7 c102 9 145 13 282 31 63 7 184 22 269 32 131 15 155 20 159 35 2 10 9
18 14 18 6 0 8 -7 4 -15 -3 -9 0 -15 10 -15 11 0 14 6 10 16 -3 9 -6 29 -6 44
0 28 -1 29 -27 14 -16 -7 -44 -14 -64 -14 -20 0 -39 -3 -43 -7 -4 -4 -32 -8
-64 -9 -31 -1 -57 -3 -57 -3 0 -1 -13 -4 -30 -5 -16 -2 -55 -7 -85 -12 -30 -4
-61 -7 -67 -5 -7 1 -13 -6 -14 -16 0 -10 -3 -13 -6 -6 -5 14 -55 11 -226 -13
-60 -9 -111 -13 -114 -10 -3 3 0 29 8 58 17 62 -19 51 354 113 50 8 142 25
205 36 63 12 133 24 155 28 32 5 41 11 43 29 2 12 -2 22 -8 22 -7 0 -10 -7 -6
-15 4 -10 -1 -15 -14 -15 -11 0 -20 7 -20 15 0 8 6 15 14 15 17 0 31 18 22 27
-3 4 -15 -2 -27 -12 -17 -17 -22 -17 -30 -5 -7 11 -8 7 -3 -12 4 -18 2 -28 -5
-28 -6 0 -11 7 -11 15 0 8 -5 15 -11 15 -5 0 -7 -5 -3 -11 4 -7 -1 -9 -15 -5
-11 3 -30 9 -41 12 -11 3 -34 -1 -50 -10 -17 -8 -30 -10 -30 -5 0 12 -13 11
-47 -2 -15 -6 -46 -13 -68 -14 -42 -3 -58 -7 -118 -23 -20 -6 -38 -8 -41 -5
-3 3 -12 0 -21 -7 -8 -7 -15 -10 -15 -7 0 2 -28 -2 -62 -9 -70 -15 -135 -18
-141 -6 -3 4 -8 33 -12 65 -6 54 -5 58 10 49 12 -6 43 -3 99 10 44 11 92 22
106 24 172 35 170 35 159 56 -8 14 -8 23 0 31 7 7 12 2 17 -17 6 -24 24 -37
24 -17 0 5 8 7 18 4 10 -2 60 5 110 17 76 18 92 25 92 41 0 15 -6 18 -40 15
-22 -2 -40 1 -40 5 0 7 -30 6 -50 -1 -3 -2 -8 -2 -12 -1 -4 0 -4 -7 -1 -17 6
-14 4 -15 -9 -4 -12 9 -18 10 -23 2 -5 -8 -10 -8 -20 0 -15 12 -30 -3 -20 -20
3 -5 2 -10 -4 -10 -5 0 -14 7 -18 15 -7 12 -14 12 -48 0 -22 -8 -50 -14 -62
-15 -13 0 -23 -5 -23 -11 0 -6 -6 -9 -14 -6 -13 5 -162 -28 -244 -54 -19 -6
-35 -9 -36 -7 -1 1 -14 23 -29 48 -71 123 -215 202 -409 225 -38 5 -58 12 -58
20 0 25 12 45 26 45 8 0 40 13 72 29 32 16 77 34 100 40 23 7 42 16 42 21 0 5
6 7 13 4 19 -7 92 22 89 35 -1 8 7 9 25 5 22 -6 25 -4 20 10 -6 14 -3 16 13
11 12 -4 20 -2 20 5 0 6 8 10 18 9 36 -3 53 2 69 21 12 13 24 18 40 14 18 -5
22 -3 17 10 -3 9 -1 16 5 16 6 0 11 -4 11 -10 0 -5 5 -10 11 -10 10 0 3 38
-10 52 -10 12 -51 -3 -51 -19 0 -8 -4 -11 -10 -8 -5 3 -16 3 -22 -2 -7 -4 -17
-8 -23 -9 -29 -4 -55 -18 -55 -30 0 -8 -5 -14 -11 -14 -5 0 -7 5 -4 10 3 6 1
10 -4 10 -6 0 -11 -4 -11 -10 0 -5 -8 -10 -18 -10 -10 0 -22 -3 -26 -7 -3 -4
-16 -8 -28 -10 -12 -2 -29 -10 -38 -18 -9 -8 -21 -15 -27 -15 -6 0 -24 -7 -40
-14 -32 -17 -60 -27 -86 -33 -10 -1 -31 -10 -48 -18 -16 -9 -29 -13 -29 -9 0
4 -7 1 -15 -6 -21 -18 -27 -9 -36 54 -9 72 -72 165 -175 258 -43 39 -82 76
-85 82 -4 6 0 46 9 88 11 59 19 77 33 81 11 3 19 13 19 24 0 13 2 15 9 5 6
-11 14 -8 35 11 22 21 24 26 10 31 -26 10 -62 -4 -69 -27 -6 -22 -6 -22 -15
-2 -5 11 -9 14 -9 8 -2 -30 -19 -9 -34 41 -46 146 -179 249 -369 286 -54 11
-83 11 -150 1 -136 -20 -213 -69 -259 -165 -8 -16 -22 -30 -32 -32 -11 -1 -53
15 -94 36 -105 55 -185 76 -300 80 -37 1 -4 118 114 400 75 178 86 221 72 272
-13 49 -57 84 -121 96 -239 45 -236 44 -250 71 -7 14 -28 46 -46 71 -31 41
-50 62 -132 149 -14 14 -37 42 -52 62 -15 20 -42 43 -60 52 -18 9 -39 25 -45
36 -7 11 -27 28 -45 37 -18 9 -44 26 -58 39 -36 32 -285 155 -315 155 -15 0
-31 15 -64 56 -12 15 -24 24 -28 20 -4 -3 -1 -12 5 -18 21 -21 13 -27 -25 -21
-45 6 -65 27 -57 59 3 12 1 31 -5 42 -6 11 -13 64 -16 118 -3 64 -10 105 -20
121 -9 13 -13 28 -10 33 3 6 2 10 -4 10 -6 0 -17 12 -26 28 -16 27 -16 27 -11
-23 3 -27 8 -63 11 -80 l6 -30 -17 23 c-9 12 -22 22 -30 22 -7 0 -19 12 -26
27 -7 14 -26 31 -43 36 -16 6 -38 19 -50 30 -20 19 -20 19 28 14 26 -2 50 -1
53 4 3 5 16 9 30 9 14 0 22 4 19 10 -3 5 -50 10 -103 11 -53 0 -108 1 -122 2
-14 0 -58 -3 -97 -8 -53 -5 -73 -4 -73 4 0 6 6 14 13 17 11 4 12 17 5 62 -8
49 -7 58 8 69 24 17 88 16 123 -1 22 -12 28 -22 29 -52 1 -23 -5 -45 -15 -56
-15 -17 -15 -18 4 -18 11 0 35 -3 52 -6 20 -4 31 -3 31 5 0 6 -7 11 -15 11 -9
0 -12 6 -8 16 3 9 0 20 -8 25 -11 6 -11 11 -1 21 6 6 12 20 12 30 0 39 58 48
133 21 35 -13 47 -22 47 -37 0 -12 5 -28 10 -36 6 -10 8 -3 3 23 -5 33 -3 37
15 37 11 0 23 4 27 9 7 13 102 2 136 -15 14 -7 39 -10 55 -8 47 8 126 4 148
-8 31 -16 85 -27 91 -18 14 23 -31 37 -176 53 -304 34 -541 42 -774 26z m-20
-33 c12 -8 19 -27 20 -52 0 -21 5 -49 9 -61 6 -20 4 -23 -22 -23 -32 0 -82
-34 -82 -55 0 -16 -38 -40 -48 -31 -3 3 0 6 6 6 17 0 4 80 -16 103 -10 11 -11
17 -4 17 8 0 12 18 12 48 0 27 3 52 7 55 12 12 99 7 118 -7z m355 -265 c0 -6
-9 -26 -21 -46 -37 -63 -9 -84 55 -40 27 18 36 21 36 10 0 -8 -4 -15 -8 -15
-15 0 -12 -92 3 -113 21 -30 20 -58 -2 -50 -16 6 -16 4 1 -15 20 -23 15 -42
-6 -25 -7 6 -21 10 -30 10 -14 0 -16 -6 -11 -25 5 -22 4 -23 -15 -13 -29 15
-37 14 -22 -4 11 -13 5 -15 -41 -14 -52 2 -53 2 -14 8 59 9 27 23 -52 22 l-66
0 29 31 c16 18 35 37 42 43 8 6 13 36 14 78 1 72 -7 96 -18 53 -9 -37 -22 -32
-30 12 -4 20 -13 45 -22 55 -22 25 -10 31 63 32 35 0 67 4 71 8 11 10 44 9 44
-2z m-3 -357 c18 -5 21 -11 17 -33 -4 -19 0 -31 13 -41 15 -12 16 -12 6 0 -17
19 -16 40 1 40 16 0 29 -27 20 -41 -6 -11 -2 -11 54 0 36 7 44 6 52 -10 19
-35 12 -40 -55 -37 -36 1 -69 -2 -74 -7 -6 -7 20 -10 72 -10 45 -1 84 2 87 5
3 3 20 11 39 17 30 11 36 10 47 -5 22 -28 16 -35 -23 -28 l-38 6 39 -15 c29
-11 42 -12 47 -4 4 6 12 9 18 5 6 -4 20 -2 31 4 16 8 26 6 49 -11 16 -12 36
-19 44 -16 8 3 30 -7 48 -21 43 -34 112 -72 132 -72 8 0 33 -20 56 -45 23 -25
50 -45 60 -45 20 0 41 -33 44 -68 1 -13 9 -30 18 -38 15 -13 16 -12 11 13 -5
28 -5 28 16 10 22 -20 36 -57 20 -57 -5 0 0 -13 12 -30 30 -43 8 -37 -31 8
-18 20 -44 46 -58 57 -14 11 6 -15 46 -58 65 -70 173 -219 173 -238 0 -8 57
-39 72 -39 16 0 8 19 -12 25 -14 4 -20 15 -20 35 0 26 2 28 27 21 26 -7 45
-31 24 -31 -6 0 -11 -4 -11 -9 0 -14 81 -21 101 -8 13 8 24 8 44 -3 17 -9 22
-16 13 -21 -9 -6 -10 -22 -1 -71 5 -35 7 -65 4 -68 -11 -8 -36 -93 -33 -115 3
-27 -44 28 -93 110 -40 67 -40 44 1 -58 25 -63 24 -78 -9 -100 -22 -14 -22
-13 -18 26 4 45 -18 177 -30 177 -4 0 -10 -39 -14 -87 -4 -49 -11 -115 -16
-148 -15 -102 -16 -100 39 -69 31 17 56 25 67 20 13 -5 -4 -17 -71 -50 -78
-38 -89 -41 -92 -25 -2 10 7 80 19 156 33 203 34 196 -44 312 -119 176 -234
295 -391 406 -88 63 -166 99 -289 135 -154 46 -177 40 -168 -42 l5 -43 6 45
c5 45 5 45 40 42 128 -12 343 -111 482 -222 101 -81 216 -212 306 -349 56 -85
63 -100 58 -131 -20 -115 -46 -305 -46 -331 0 -40 18 -38 108 11 97 53 120 43
60 -26 -22 -25 -26 -34 -13 -27 37 20 73 68 85 111 10 40 19 50 33 36 9 -9
-20 -75 -46 -103 -12 -13 -40 -37 -61 -52 -34 -25 -36 -29 -16 -29 18 0 20 -3
10 -14 -6 -8 -10 -30 -8 -48 l3 -33 -650 -1 c-587 -1 -1259 -10 -1390 -19
l-50 -3 45 12 c25 6 61 20 80 30 43 24 126 102 145 138 26 48 -2 40 -40 -12
-79 -108 -186 -163 -298 -153 -31 3 -59 8 -61 12 -2 3 16 4 41 2 25 -2 49 1
54 6 7 7 -13 12 -54 16 -61 6 -153 34 -143 44 3 3 26 -3 53 -13 34 -13 75 -19
138 -19 144 0 195 35 275 189 14 27 30 49 35 49 5 0 23 -22 38 -49 69 -119
139 -163 257 -164 124 0 222 62 251 160 11 35 10 42 -6 60 -10 11 -25 20 -33
20 -18 0 -77 -43 -114 -83 l-28 -30 -9 24 c-5 13 -10 19 -10 12 -2 -23 11 -43
27 -43 13 0 13 -3 4 -12 -9 -9 -16 -9 -28 4 -20 20 -35 308 -15 308 6 0 11 4
11 10 0 5 -3 9 -7 7 -10 -3 -13 7 -12 41 l1 27 8 -25 c7 -22 8 -21 9 13 1 20
4 37 7 37 3 0 33 -25 67 -55 72 -66 100 -76 129 -47 20 20 17 49 -4 36 -6 -4
-8 1 -3 15 3 12 2 20 -3 19 -15 -5 -136 152 -125 163 13 13 409 24 417 11 3
-5 -16 -38 -43 -74 -27 -35 -58 -82 -70 -105 l-21 -42 22 -21 c12 -11 27 -20
32 -20 15 0 100 70 126 103 29 36 37 34 44 -10 9 -56 11 -337 2 -351 -12 -19
-35 -14 -74 17 -42 32 -72 45 -72 31 0 -6 -5 -10 -11 -10 -7 0 -9 11 -5 30 6
32 -2 38 -22 18 -32 -32 6 -122 71 -166 41 -29 106 -53 137 -51 8 0 -1 5 -20
11 -19 5 -43 18 -53 29 -10 10 -29 19 -42 19 -17 0 -25 6 -25 18 0 10 -4 22
-10 28 -5 5 -6 15 -1 23 7 11 20 6 61 -27 41 -33 61 -42 90 -42 l38 0 -4 43
c-2 23 -5 135 -8 249 -3 124 -9 214 -15 225 -9 14 -10 1 -6 -52 11 -128 12
-190 4 -210 -4 -11 -8 30 -8 96 -1 127 -14 166 -45 140 -10 -8 -16 -9 -16 -3
0 6 8 16 19 21 10 6 22 18 25 28 6 15 4 15 -16 -2 -13 -10 -48 -46 -79 -80
-32 -33 -60 -57 -64 -53 -8 7 47 88 102 151 18 20 33 47 32 60 l0 22 -15 -22
c-15 -21 -16 -21 -35 -2 -19 19 -32 20 -231 17 -158 -2 -212 -6 -216 -15 -5
-18 -22 -16 -22 2 0 8 9 15 19 15 11 0 22 4 26 10 3 5 3 106 -1 224 -6 166
-10 216 -21 220 -18 7 -161 -29 -242 -61 -111 -45 -275 -161 -369 -262 -76
-82 -201 -261 -254 -365 l-15 -29 -6 38 c-3 20 -3 44 2 53 47 100 121 206 208
298 27 28 47 57 45 64 -3 7 0 10 5 7 11 -7 36 18 46 46 4 10 13 17 21 15 19
-4 132 85 116 90 -6 2 5 15 24 29 20 13 41 21 46 18 6 -4 9 -1 8 6 -2 7 18 21
45 31 26 10 61 27 76 39 22 16 53 24 122 31 50 5 100 13 110 18 54 29 57 18
63 -284 3 -115 8 -212 13 -217 8 -8 6 142 -5 374 -4 84 -3 142 2 147 7 7 -3
10 -27 10 -42 0 -49 16 -12 30 16 6 23 15 19 25 -4 9 1 18 12 22 11 5 19 15
19 23 0 12 20 16 100 21 55 3 105 6 110 7 6 1 20 -1 32 -4z m-326 -310 c4 -32
7 -123 8 -201 l1 -142 -27 -13 c-15 -7 -29 -20 -31 -29 -2 -9 24 -47 56 -85
33 -37 68 -81 77 -97 l18 -30 -29 7 c-16 4 -31 11 -34 14 -3 4 -22 22 -42 41
-31 29 -40 32 -53 21 -13 -11 -15 -8 -15 24 0 20 -4 36 -10 36 -19 0 -22 -78
-11 -297 6 -123 9 -229 5 -234 -3 -5 7 -14 22 -19 29 -11 31 -11 103 48 50 41
54 29 6 -18 -34 -33 -43 -50 -27 -50 5 0 19 9 32 20 13 11 28 20 33 20 6 0 -4
-11 -23 -25 -38 -28 -42 -29 -56 -16 -9 10 -96 -8 -110 -22 -12 -12 -20 -9
-82 37 -33 25 -62 43 -65 40 -2 -2 -10 3 -18 13 -12 15 -12 16 1 8 8 -4 12 -5
8 -1 -3 4 -10 8 -15 8 -16 -1 -42 30 -37 43 3 7 0 16 -7 21 -8 5 -10 3 -4 -6
5 -8 4 -11 -3 -6 -6 4 -9 12 -7 19 5 14 -12 37 -40 53 -12 7 -19 21 -18 33 5
43 -17 18 -76 -88 -33 -60 -75 -121 -91 -135 -26 -21 -113 -56 -141 -56 -4 0
-7 19 -7 43 1 23 -2 69 -6 102 -5 33 -9 67 -10 75 -1 9 -5 21 -10 28 -4 7 -8
26 -8 42 -1 17 -5 33 -10 36 -4 3 -6 9 -3 14 3 5 1 11 -5 15 -5 3 -10 28 -10
54 0 35 5 53 20 66 11 10 17 21 14 26 -2 5 4 14 16 21 11 7 20 19 20 27 0 8 6
22 14 30 8 9 22 32 33 51 34 64 91 144 141 198 71 76 42 64 -37 -15 -77 -77
-173 -203 -232 -306 -47 -80 -47 -69 -1 -289 26 -125 31 -208 13 -208 -4 0 -8
8 -8 18 1 60 -4 81 -16 76 -9 -3 -16 17 -25 73 -7 43 -15 91 -18 107 -4 19 -3
26 5 22 6 -4 11 -2 11 4 0 6 -7 13 -15 16 -8 4 -15 10 -15 16 0 5 5 6 11 2 7
-4 9 1 5 15 -3 11 -8 30 -11 40 -9 29 16 79 101 208 134 202 282 339 469 433
90 45 234 93 260 86 6 -1 13 -29 16 -62z m-956 -536 c14 -6 25 -15 25 -20 0
-5 4 -7 8 -4 17 10 32 -41 62 -211 35 -199 34 -193 16 -193 -9 0 -12 7 -9 20
4 13 -5 32 -27 56 -17 20 -41 56 -53 80 -21 44 -21 46 -4 128 19 96 20 106 8
106 -5 0 -11 -12 -14 -27 -7 -34 -68 -136 -82 -137 -9 -1 -45 88 -45 114 0 8
8 34 18 57 14 36 22 43 44 43 15 0 39 -5 53 -12z m-1993 -190 c67 -51 194
-148 282 -216 89 -68 207 -158 263 -200 75 -56 102 -83 103 -99 0 -24 -19 -73
-29 -73 -9 0 -35 18 -266 189 -115 85 -244 180 -286 210 -42 31 -107 79 -144
106 -36 28 -75 54 -86 60 -36 19 -14 115 27 115 8 0 69 -42 136 -92z m-247
-344 c66 -42 176 -110 245 -152 69 -41 215 -131 326 -198 l200 -123 17 -58 c8
-32 14 -59 12 -61 -2 -2 -75 38 -162 89 -87 50 -171 99 -188 109 -98 56 -173
101 -280 165 -66 39 -145 85 -175 102 -30 17 -82 47 -115 67 -43 26 -67 35
-84 31 l-23 -6 27 48 c30 52 42 63 65 63 8 0 69 -34 135 -76z m4609 -105 c6
-5 -39 -9 -119 -9 -135 0 -170 -7 -50 -10 129 -4 185 -12 185 -26 0 -11 -39
-14 -212 -14 -117 0 -571 -3 -1008 -6 -553 -5 -792 -3 -785 4 11 11 126 20
273 21 50 1 92 4 92 9 0 4 -125 6 -277 4 -152 -1 -275 -1 -272 2 4 4 883 29
1414 40 246 5 749 -5 759 -15z m115 -40 l23 -31 -62 -60 c-36 -36 -63 -72 -67
-89 -3 -16 -9 -29 -14 -29 -5 0 -9 -9 -9 -20 0 -11 5 -20 11 -20 5 0 7 5 4 10
-3 6 -1 10 4 10 16 0 13 -59 -4 -76 -11 -12 -15 -40 -15 -119 0 -120 5 -115
-108 -115 -54 0 -72 -3 -62 -10 20 -13 230 -13 230 0 0 6 -9 10 -21 10 -18 0
-20 4 -14 27 3 15 12 32 20 37 7 6 15 29 18 51 9 73 27 177 33 186 9 15 133
48 224 60 49 6 88 15 85 19 -2 4 -32 13 -65 20 -70 15 -163 9 -234 -15 -66
-23 -69 -12 -5 20 85 43 189 43 304 -1 18 -7 18 -6 6 9 -7 9 -9 17 -3 17 13 0
114 -44 183 -80 36 -19 73 -30 103 -32 26 0 49 -5 52 -9 2 -4 18 -3 36 1 17 5
70 16 117 24 98 17 159 40 167 61 4 8 10 13 14 10 15 -10 21 14 9 37 -6 13
-25 34 -41 47 l-29 23 26 14 c15 8 31 12 35 9 5 -3 11 -2 14 3 8 13 83 4 116
-13 16 -8 41 -30 55 -49 24 -32 25 -37 14 -80 -6 -26 -16 -49 -21 -52 -6 -4
-36 -8 -67 -9 -68 -3 -77 -5 -121 -33 -92 -58 -257 -60 -450 -7 -47 13 -107
26 -135 30 -49 5 -48 4 30 -23 96 -35 154 -64 138 -69 -6 -2 -26 3 -44 12 -25
13 -60 17 -158 17 -139 0 -173 -8 -242 -63 -44 -35 -53 -26 -11 13 74 68 89
73 202 72 140 -2 99 16 -53 24 -173 8 -230 -24 -249 -141 -10 -63 -4 -157 11
-157 4 0 23 16 42 36 48 50 149 121 195 138 69 24 136 27 190 10 27 -8 146
-40 264 -70 168 -42 237 -65 320 -105 107 -51 170 -99 170 -130 0 -9 10 -38
22 -65 27 -60 36 -37 14 35 -8 28 -11 51 -7 51 5 0 24 -33 44 -72 34 -71 35
-76 30 -163 -5 -74 -11 -101 -36 -150 -35 -70 -44 -145 -17 -145 9 0 20 -3 24
-7 4 -5 13 -8 19 -8 10 0 18 -21 31 -85 3 -14 12 -34 21 -45 13 -18 13 -16 0
17 -20 51 -19 111 3 131 9 9 35 50 57 92 22 43 53 86 68 97 27 19 29 19 48 3
24 -22 24 -48 2 -82 -17 -26 -17 -26 4 -14 12 6 60 11 106 11 66 0 99 -6 152
-25 80 -31 99 -42 129 -83 27 -38 35 -122 12 -141 -10 -8 -13 -23 -9 -47 6
-38 -12 -84 -34 -84 -7 0 -13 -7 -13 -15 0 -8 -4 -15 -9 -15 -5 0 -42 -20 -81
-45 -88 -54 -154 -70 -237 -56 -63 10 -127 33 -153 55 -8 7 -32 23 -53 35
l-38 23 6 -66 c7 -64 6 -66 -19 -76 -14 -5 -26 -14 -26 -20 0 -16 78 -90 95
-90 8 0 15 -4 15 -9 0 -5 17 -20 38 -33 32 -20 49 -23 123 -22 53 1 108 8 144
20 80 25 200 107 250 171 22 28 44 52 48 52 5 1 5 -20 1 -46 -8 -58 -85 -208
-125 -245 -56 -52 -157 -101 -233 -113 -51 -8 -146 -49 -146 -62 0 -7 29 -41
65 -74 36 -34 65 -66 65 -70 0 -19 -37 -6 -71 24 -64 58 -199 224 -199 245 0
5 -6 15 -14 21 -15 12 -53 109 -60 151 -13 79 -46 144 -46 90 0 -11 -4 -20
-10 -20 -15 0 -12 -49 5 -108 27 -90 133 -261 238 -385 96 -112 194 -288 203
-366 4 -33 4 -34 -7 -11 -48 105 -93 190 -100 190 -5 0 -9 5 -9 11 0 11 -64
96 -119 159 -75 85 -101 118 -101 125 0 5 -12 23 -26 42 -14 18 -36 59 -50 91
-14 31 -29 66 -33 77 -24 55 -58 206 -72 322 -2 19 -17 -45 -18 -78 -1 -23 -7
-39 -16 -43 -8 -3 -15 -16 -15 -30 0 -14 -5 -28 -10 -31 -6 -4 -8 -11 -4 -16
3 -5 0 -17 -7 -25 -25 -30 -4 -135 55 -270 59 -134 87 -178 204 -313 41 -47
90 -111 109 -141 20 -30 43 -66 52 -80 31 -46 63 -132 57 -155 -3 -12 -23 -34
-44 -49 -48 -33 -90 -76 -74 -76 6 0 17 8 24 18 18 23 67 54 80 50 13 -5 21
-45 22 -108 1 -33 -6 -55 -24 -80 -43 -62 -72 -89 -87 -83 -12 5 -13 -1 -8
-31 9 -46 -5 -47 -42 -2 -15 18 -59 57 -98 86 -83 62 -175 154 -175 174 0 8
-6 21 -13 28 -7 7 -37 62 -66 121 -40 82 -54 123 -59 170 -3 40 -12 68 -24 81
-18 20 -18 19 -18 -10 0 -53 38 -218 68 -297 42 -107 90 -189 167 -282 36 -44
84 -102 106 -130 23 -27 62 -72 88 -100 25 -27 60 -68 76 -90 16 -22 35 -44
42 -48 7 -4 13 -16 13 -25 0 -10 4 -22 9 -27 35 -35 60 -301 31 -328 -10 -9
-11 -7 -5 11 3 12 2 22 -4 22 -5 0 -9 8 -8 18 0 10 -8 38 -20 62 -50 109 -60
138 -66 182 -4 26 -2 59 2 72 11 28 0 46 -70 121 -26 28 -64 70 -84 95 -21 25
-50 56 -65 70 -43 38 -177 235 -214 314 -51 108 -72 178 -100 326 -14 74 -30
148 -34 164 l-8 30 -13 -32 c-7 -18 -16 -32 -18 -32 -14 0 -63 36 -63 46 0 7
-6 19 -13 26 -21 22 -69 138 -63 153 9 24 -39 147 -86 220 -69 110 -149 265
-135 265 6 -1 23 -7 37 -15 28 -16 165 -21 174 -6 8 13 -23 37 -87 65 -79 35
-170 107 -219 174 -23 31 -55 73 -72 93 -17 20 -39 50 -48 67 -9 18 -22 32
-28 32 -15 0 -12 -34 10 -99 11 -33 24 -98 29 -145 8 -65 18 -99 42 -143 49
-90 98 -171 150 -248 25 -39 86 -149 134 -245 104 -210 133 -254 164 -258 34
-5 45 -19 60 -80 14 -57 23 -222 12 -222 -4 0 -22 16 -41 35 -19 19 -37 35
-42 35 -4 0 -12 -17 -17 -37 -13 -50 6 -139 48 -218 17 -33 31 -65 31 -72 0
-7 4 -13 9 -13 5 0 15 35 23 78 l13 77 18 -53 18 -53 -41 -68 c-22 -38 -51
-83 -65 -100 -26 -30 -26 -30 -5 -41 11 -6 20 -19 20 -29 0 -30 13 -32 30 -5
16 24 18 24 23 5 2 -11 0 -22 -7 -25 -6 -3 -2 -4 10 -1 25 6 30 0 73 -80 18
-33 41 -69 51 -80 55 -61 74 -126 43 -143 -14 -9 -14 -10 5 -16 13 -4 22 -16
22 -27 0 -10 5 -19 10 -19 6 0 22 -12 36 -27 l26 -28 -7 36 c-8 43 7 59 34 35
9 -9 34 -51 55 -93 20 -43 48 -100 61 -128 47 -98 75 -199 77 -277 1 -18 4
-35 9 -38 4 -3 -3 -39 -17 -80 -13 -41 -24 -81 -24 -89 0 -19 -23 -81 -30 -81
-3 0 -13 18 -23 40 -16 37 -16 43 -1 80 11 27 13 44 6 53 -5 6 -12 51 -16 99
-10 123 -84 339 -130 377 -9 8 -16 20 -16 27 0 7 -25 40 -55 71 -31 32 -89
114 -130 185 -41 70 -80 130 -87 134 -24 15 84 -171 165 -284 47 -64 93 -133
102 -152 34 -67 87 -236 94 -300 13 -114 -23 -361 -64 -440 -27 -52 -75 -100
-101 -100 -14 0 -27 -7 -30 -15 -4 -8 -16 -15 -28 -15 -21 1 -21 1 2 20 32 26
103 125 137 190 16 30 35 63 43 72 16 20 31 272 20 339 -12 68 -75 220 -121
289 -24 36 -79 117 -122 180 -76 112 -165 281 -165 314 0 35 -29 26 -79 -24
-28 -28 -51 -53 -51 -56 0 -2 18 5 40 16 55 28 67 17 31 -27 -32 -38 -32 -53
-1 -53 28 0 88 -58 123 -120 17 -30 55 -83 84 -117 29 -34 63 -84 74 -110 12
-26 26 -56 31 -67 6 -12 6 -22 -1 -29 -8 -8 -11 -7 -11 3 -1 18 -34 60 -48 60
-9 0 -39 -129 -65 -285 l-14 -80 4 142 c2 101 0 143 -8 143 -6 0 -9 7 -6 15 9
22 -14 30 -30 10 -16 -23 -17 -147 -3 -283 6 -58 6 -100 1 -111 -5 -9 -7 -36
-4 -59 5 -34 8 -40 19 -31 11 9 14 8 15 -2 0 -16 44 120 65 206 33 133 34 135
59 141 24 6 39 29 29 45 -3 5 0 17 5 26 9 15 10 13 11 -14 0 -22 5 -33 14 -33
16 0 52 -114 55 -173 1 -27 -2 -37 -14 -37 -17 0 -20 -16 -5 -25 6 -3 10 -1
10 4 0 6 4 11 8 11 5 0 7 -13 4 -30 l-4 -30 -19 23 c-10 12 -18 16 -19 10 0
-7 4 -13 9 -13 4 0 7 -25 6 -55 -2 -30 1 -55 6 -55 18 0 8 -44 -23 -103 -80
-149 -266 -294 -429 -331 -33 -8 -64 -17 -67 -20 -12 -12 67 -5 108 9 23 8 51
15 61 15 11 0 41 10 67 22 26 13 55 21 65 20 9 -2 17 2 17 7 0 6 6 11 12 11
24 0 -30 -42 -59 -46 -15 -2 -54 -15 -86 -29 -38 -16 -91 -29 -150 -35 -51 -5
-110 -13 -132 -17 -58 -10 -529 -4 -533 8 -5 13 -42 10 -77 -6 l-30 -13 38 5
c23 4 37 2 37 -5 0 -23 -139 -72 -206 -72 -24 0 -60 -10 -86 -24 -56 -30 -93
-42 -84 -28 3 6 -1 12 -9 14 -11 2 6 25 54 72 39 39 74 66 78 62 4 -4 -9 -23
-30 -42 -36 -34 -49 -61 -24 -51 6 2 62 17 122 33 62 16 100 30 87 32 -13 2
-37 -1 -54 -7 -17 -6 -38 -11 -47 -11 -14 0 -14 2 1 16 15 15 88 34 207 54 38
7 92 5 180 -5 176 -21 379 -7 454 31 28 15 36 39 15 47 -7 2 5 3 27 2 60 -4
100 23 58 39 -11 5 -22 1 -30 -10 -10 -14 -13 -15 -14 -3 0 10 -2 10 -6 1 -2
-6 -9 -10 -14 -6 -5 3 -23 -1 -39 -10 -17 -8 -30 -11 -30 -8 0 4 29 21 64 38
63 30 64 30 87 11 15 -12 25 -15 27 -7 2 6 -4 17 -14 25 -11 7 -16 16 -13 19
3 3 16 -2 28 -13 21 -19 22 -19 71 5 28 13 60 26 72 27 14 3 22 12 23 25 2 26
-10 29 -24 5 -6 -11 -11 -13 -11 -5 0 13 -73 -19 -85 -38 -3 -5 -12 -10 -18
-10 -8 0 -7 3 2 9 7 5 10 14 7 20 -4 7 6 23 23 38 17 15 31 34 31 41 0 8 11
27 25 44 14 16 25 38 25 48 0 10 7 21 16 24 12 5 13 8 2 20 -11 12 -15 12 -31
-2 -29 -26 -36 -2 -20 73 10 45 13 93 9 135 -9 92 -10 99 -28 112 -8 7 -21 34
-28 60 -9 33 -18 48 -29 48 -9 0 -25 13 -34 30 -10 16 -24 35 -31 43 -7 7 -24
33 -37 57 -54 100 -118 188 -148 203 -17 9 -31 11 -31 7 0 -11 27 -60 79 -143
124 -196 194 -428 161 -534 -16 -51 -57 -140 -68 -147 -11 -7 -9 22 5 60 22
61 34 102 31 111 -1 4 4 18 11 31 9 17 9 27 2 36 -6 7 -8 16 -4 19 3 4 1 13
-5 20 -7 8 -9 17 -6 20 4 3 3 14 -1 24 -9 21 -12 35 -20 88 -10 64 -53 150
-141 275 -98 141 -136 206 -164 282 -24 65 -20 97 13 99 12 1 29 2 38 3 28 2
58 37 71 80 10 36 31 64 134 178 13 14 33 43 45 62 11 20 26 36 31 36 7 0 9
19 5 53 -5 35 -3 47 3 37 9 -13 11 -13 20 0 14 21 12 28 -6 38 -11 6 -13 11
-5 16 17 11 14 56 -4 56 -8 0 -15 -6 -15 -12 0 -9 -3 -9 -9 1 -8 12 -14 7 -31
-22 -12 -20 -26 -37 -31 -37 -4 0 -20 -21 -35 -47 -15 -27 -63 -99 -107 -162
-133 -191 -209 -337 -248 -476 -14 -49 -18 -279 -5 -292 3 -3 12 0 21 7 9 7
17 11 20 9 11 -12 26 -201 20 -254 -14 -129 -69 -264 -135 -333 -55 -58 -234
-219 -269 -242 -13 -8 -54 -39 -93 -68 -38 -30 -72 -51 -75 -48 -8 7 91 96
133 120 19 11 36 27 39 36 3 9 19 24 36 34 46 27 244 230 273 280 36 62 67
167 70 238 3 79 -1 93 -21 76 -13 -10 -15 -9 -11 7 2 11 10 19 16 18 19 -4 14
14 -8 30 -38 27 -65 247 -43 367 27 156 27 150 9 150 -9 0 -16 6 -16 13 -1 18
-46 -41 -63 -82 -9 -20 -25 -69 -38 -109 -25 -84 -22 -115 33 -332 l29 -115
-26 -22 c-14 -12 -25 -27 -25 -33 0 -6 -12 -37 -27 -68 -15 -31 -28 -60 -28
-63 0 -6 -85 -108 -145 -174 -30 -33 -111 -108 -175 -161 -90 -76 -135 -100
-135 -74 0 6 6 10 13 10 7 0 18 9 25 20 7 11 26 29 43 39 52 32 229 211 229
233 0 10 -4 16 -10 13 -5 -3 -17 -2 -26 3 -14 8 -30 -5 -80 -63 -135 -155
-178 -182 -606 -384 -80 -38 -121 -71 -153 -121 -24 -39 -65 -162 -65 -198 0
-44 -20 -30 -36 25 -9 32 -19 64 -22 72 -4 10 -1 12 8 6 11 -7 12 5 7 60 -6
66 -19 96 -34 82 -6 -7 6 -66 22 -109 4 -11 3 -18 -4 -18 -6 0 -11 9 -11 19 0
30 -84 115 -147 148 -32 17 -92 45 -133 61 -259 103 -373 161 -454 234 -55 48
-114 122 -151 187 -11 19 -33 42 -49 51 -29 16 -53 50 -25 36 8 -5 8 -2 -2 6
-17 15 -32 48 -21 48 4 0 72 -67 152 -148 128 -131 154 -153 220 -184 104 -50
209 -93 245 -102 17 -4 62 -22 100 -41 67 -34 76 -35 196 -38 69 -2 130 -7
135 -10 6 -3 28 -1 50 5 21 5 61 12 87 14 74 6 323 103 384 150 17 13 37 24
44 24 32 0 151 90 199 150 43 54 30 50 -33 -9 -98 -92 -134 -73 -46 25 28 31
57 71 65 89 15 36 50 63 94 72 17 3 43 19 58 34 30 32 42 36 42 14 0 -27 20
-16 27 15 9 50 20 43 32 -21 9 -46 16 -59 27 -55 8 3 14 -1 14 -9 0 -8 4 -15
9 -15 14 0 33 28 26 40 -3 5 -2 10 4 10 6 0 17 12 24 26 30 58 -46 284 -96
284 -7 0 -21 10 -31 21 -14 17 -17 31 -12 62 4 23 11 46 15 52 5 5 27 45 49
88 50 95 89 147 106 141 6 -2 28 25 51 63 50 88 91 147 138 203 48 56 57 68
57 73 0 3 -16 8 -36 11 -29 6 -43 2 -82 -23 -74 -49 -140 -117 -178 -185 -23
-42 -34 -27 -14 19 24 55 35 73 84 125 20 22 34 40 30 40 -19 0 -95 -54 -118
-82 l-26 -33 0 26 c0 15 11 36 26 50 14 13 35 39 46 58 19 30 173 153 247 197
29 17 51 51 51 80 0 8 16 50 36 93 43 94 44 142 2 70 -58 -99 -214 -255 -321
-322 -32 -20 -47 -16 -27 8 7 8 8 15 2 15 -12 0 -24 -28 -17 -40 8 -14 -20
-29 -43 -23 -12 3 -22 8 -22 12 0 3 18 29 40 56 21 28 49 62 60 77 12 15 45
44 73 64 60 43 129 121 157 179 29 60 37 130 16 150 -18 18 -18 22 -16 112 2
90 -18 183 -40 183 -12 0 -27 23 -50 75 -18 41 -40 80 -48 87 -13 11 -15 10
-10 -2 3 -8 27 -66 52 -128 51 -127 76 -213 76 -263 0 -60 -38 -190 -67 -232
-43 -61 -117 -141 -121 -129 -1 5 11 41 28 78 50 111 63 176 55 279 -4 49 -15
115 -25 145 -10 30 -21 73 -24 95 -4 22 -17 52 -30 68 l-22 28 4 -177 c3 -120
1 -175 -6 -170 -5 3 -8 16 -5 29 4 18 3 19 -6 7 -6 -8 -11 -28 -12 -45 0 -16
-4 -39 -9 -50 -7 -16 -9 -14 -10 15 l-1 35 -13 -35 c-7 -19 -21 -61 -30 -92
-9 -32 -21 -58 -27 -58 -6 0 -5 8 2 21 6 12 15 35 20 52 l8 29 -22 -18 c-37
-31 -57 -53 -57 -61 -1 -4 -14 -24 -30 -43 -31 -36 -37 -31 -20 16 16 41 3 41
-16 0 -21 -42 -38 -49 -23 -8 19 49 71 155 114 232 33 59 49 105 74 214 18 76
30 145 27 152 -7 19 4 44 19 44 23 0 97 -176 130 -310 27 -106 25 -238 -3
-309 -12 -30 -20 -57 -18 -59 9 -8 56 87 70 143 37 139 12 269 -89 463 -42 80
-67 140 -71 173 -4 32 -10 46 -15 38 -6 -10 -11 -5 -18 14 -6 16 -11 36 -11
45 0 9 -11 41 -25 70 -29 63 -29 62 -11 62 8 0 31 -31 51 -68 23 -42 48 -74
67 -85 l31 -18 -7 68 c-3 37 -6 83 -6 101 0 17 -5 32 -11 32 -13 0 -82 31 -89
40 -9 12 -70 29 -84 24 -9 -3 -21 11 -35 39 -26 54 -26 53 6 62 l26 6 -20 21
c-12 11 -33 21 -47 21 -22 0 -36 14 -82 80 l-55 80 27 23 c26 23 26 25 15 71
-14 56 -26 75 -95 162 -61 76 -116 111 -175 111 -54 0 -132 20 -125 31 6 10
184 12 209 3 9 -4 67 -70 130 -148 62 -78 149 -175 193 -214 84 -75 95 -95
108 -185 3 -26 17 -64 30 -83 13 -19 24 -39 24 -43 0 -5 7 -14 15 -21 20 -17
20 3 -1 61 -8 24 -28 94 -44 156 -16 61 -41 131 -56 155 -42 66 -161 192 -264
279 -30 26 -53 48 -50 51 3 2 64 1 135 -2 72 -4 146 -3 165 1 38 9 70 40 70
69 0 10 -8 26 -17 36 -16 17 -28 18 -93 13 l-75 -5 78 -2 c52 -1 77 -6 75 -13
-2 -7 -166 -12 -543 -15 -297 -2 -758 -6 -1025 -9 -303 -3 -481 -2 -475 4 6 5
129 13 274 17 146 3 276 10 290 14 14 3 -114 5 -284 4 -367 -3 -273 7 258 26
191 7 347 16 347 19 0 3 -69 6 -154 6 -85 0 -157 3 -160 6 -3 3 -11 44 -17 90
-11 86 -27 119 -60 119 -31 0 -30 -16 6 -95 58 -125 61 -120 -78 -121 -85 -1
-122 3 -131 12 -9 8 -14 45 -15 105 -1 51 -5 97 -8 102 -3 5 -5 43 -5 84 1 67
-6 92 -12 48 -1 -9 -7 -20 -12 -23 -5 -4 -17 -24 -28 -44 -10 -20 -27 -46 -38
-57 -18 -20 -18 -22 2 -68 12 -27 30 -65 41 -85 11 -21 16 -38 10 -38 -5 0
-18 -3 -28 -7 -17 -7 -17 -6 0 11 24 24 22 26 -20 19 -26 -4 -34 -3 -29 5 4 7
14 12 22 12 8 0 14 5 14 10 0 6 -11 8 -25 4 -19 -5 -25 -2 -25 10 0 18 -11 21
-26 7 -5 -4 -21 -11 -35 -15 -27 -6 -53 12 -54 38 -1 13 -13 44 -26 68 -5 10
-9 58 -9 106 0 49 -3 92 -6 95 -4 4 -14 -2 -24 -13 -23 -26 -70 -37 -70 -16 0
13 -5 14 -26 5 -32 -11 -42 -5 -24 16 10 13 9 15 -7 15 -10 0 -28 -7 -39 -15
-25 -19 -40 -19 -24 0 10 12 10 15 -4 15 -9 0 -16 5 -16 11 0 7 11 9 27 6 15
-3 38 -1 50 4 53 20 1416 62 1733 54 30 -1 137 -2 237 -3 139 -2 185 -5 195
-16 11 -11 18 -10 45 8 39 25 45 39 33 70 -8 23 -5 36 10 36 3 0 16 -14 29
-31z m-3536 -47 c3 -4 31 -8 63 -10 32 -2 61 -6 64 -10 3 -4 13 -7 23 -7 28 0
21 -19 -10 -26 -42 -9 -93 -38 -93 -53 0 -18 59 -75 90 -88 14 -5 72 -14 130
-19 58 -5 110 -10 115 -10 40 -4 113 14 152 37 25 14 42 21 38 14 -6 -10 -3
-11 11 -5 52 21 102 23 209 4 197 -33 213 -42 238 -129 34 -116 40 -147 33
-183 -10 -52 -29 -48 -23 6 7 62 -19 170 -48 197 l-23 22 -7 -21 c-7 -23 -20
-27 -30 -11 -3 6 -11 10 -18 10 -6 0 5 -14 26 -31 20 -17 37 -35 37 -41 0 -6
-19 5 -43 25 -63 52 -108 67 -201 68 -90 1 -64 16 32 18 67 1 60 21 -6 21 -64
0 -149 -23 -223 -61 -34 -16 -63 -28 -66 -25 -9 9 61 46 130 67 37 12 67 26
67 30 0 5 -3 9 -7 9 -8 -1 -131 -35 -238 -66 -27 -8 -93 -17 -146 -21 -119 -7
-188 11 -254 69 -24 21 -47 38 -52 37 -24 -4 -43 3 -43 15 0 8 -5 16 -12 18
-13 5 -8 19 19 58 17 25 17 25 -2 9 -56 -45 -45 -10 19 59 30 33 41 38 49 24z
m235 -92 c8 -17 17 -28 22 -25 11 7 32 -20 23 -29 -4 -4 -1 -11 6 -16 23 -13
-68 -28 -114 -18 -22 5 -48 17 -59 27 -17 18 -17 20 0 46 19 30 45 43 84 44
19 1 29 -7 38 -29z m925 -8 c-3 -8 -2 -17 4 -21 5 -3 17 -23 26 -43 10 -20 24
-44 32 -52 8 -8 17 -32 21 -55 6 -41 6 -41 -24 -41 -17 0 -42 4 -56 10 -26 9
-26 11 -26 113 0 82 3 104 14 104 8 0 12 -6 9 -15z m-358 -261 c43 -19 119
-77 203 -152 49 -45 51 -47 40 -77 -26 -67 31 -112 142 -112 33 0 60 -3 60 -7
-1 -5 -20 -17 -43 -28 -31 -15 -54 -38 -85 -85 -101 -153 -134 -241 -133 -365
0 -63 -4 -94 -13 -105 -30 -32 -48 -148 -40 -260 4 -58 7 -135 6 -172 -1 -68
12 -92 24 -40 3 15 11 45 16 67 6 22 11 49 13 60 3 33 16 65 25 65 4 0 6 -19
3 -41 -5 -33 -3 -41 8 -37 12 4 74 83 99 128 5 8 11 12 15 9 3 -4 -3 -23 -15
-43 -12 -22 -20 -55 -20 -81 0 -25 -4 -45 -9 -45 -4 0 -11 -26 -14 -57 -4 -44
-20 -89 -67 -183 -69 -140 -73 -119 -4 30 45 100 51 120 34 120 -5 0 -10 -4
-10 -10 0 -5 -20 -30 -44 -55 -25 -25 -50 -61 -56 -79 -6 -19 -18 -40 -26 -46
-12 -10 -14 -8 -14 14 0 14 -4 26 -9 26 -17 0 -109 -119 -126 -164 -15 -39
-21 -44 -58 -51 -23 -5 -47 -7 -53 -6 -6 1 5 -17 25 -39 31 -36 37 -39 47 -25
7 9 16 16 21 15 4 -1 16 22 26 51 30 87 75 121 75 57 1 -18 2 -40 3 -48 1 -8
1 -38 1 -66 -2 -48 -3 -51 -26 -47 -13 3 -27 0 -30 -6 -8 -13 28 -141 55 -192
26 -51 159 -190 232 -243 92 -65 193 -195 167 -211 -6 -4 -10 1 -10 9 0 9 -8
16 -17 16 -13 0 -14 -3 -5 -12 7 -7 12 -18 12 -25 0 -8 -17 3 -38 24 -41 42
-137 121 -202 168 -43 31 -154 151 -181 195 -8 14 -30 60 -48 103 -29 66 -36
75 -49 65 -12 -10 -19 -7 -42 20 -14 17 -34 32 -43 32 -10 0 -22 11 -27 24 -8
23 -6 46 20 201 15 86 12 145 -6 145 -11 0 -14 6 -8 23 18 59 131 256 164 287
31 28 51 79 43 109 -4 15 -1 21 11 21 18 0 21 15 5 25 -13 9 -3 127 17 199 23
82 28 116 16 116 -5 0 -18 -23 -28 -52 -11 -28 -26 -53 -35 -55 -9 -3 -35 -33
-58 -68 -39 -60 -109 -130 -119 -120 -3 2 12 23 32 45 20 22 36 44 36 50 0 5
31 44 70 87 38 43 70 82 70 87 0 5 -27 -16 -59 -47 -95 -91 -94 -66 1 31 92
93 138 168 138 227 0 34 13 47 24 23 3 -7 5 -2 4 12 -3 61 1 70 29 70 25 0 25
1 10 18 -16 18 -40 110 -31 123 2 3 -6 15 -16 27 -11 12 -20 26 -20 32 0 5 -7
10 -15 10 -8 0 -15 4 -15 10 0 9 -83 70 -96 70 -4 0 3 -11 16 -24 13 -15 20
-31 16 -41 -7 -20 -26 -10 -26 13 0 10 -3 13 -8 7 -4 -6 -23 -18 -42 -27 -28
-14 -31 -18 -17 -23 9 -4 17 -11 17 -16 0 -5 -10 -3 -23 6 -27 17 -157 55
-204 59 -17 1 -38 8 -45 14 -32 26 -111 44 -167 38 -131 -15 -183 -29 -192
-53 -8 -20 -15 -23 -69 -23 -33 0 -60 2 -60 5 0 6 75 42 130 63 37 14 83 17
267 16 135 0 220 3 216 9 -3 5 8 6 27 2 23 -5 30 -4 26 4 -9 14 14 14 48 1 37
-14 32 3 -6 23 l-33 18 29 -6 c18 -4 32 -1 37 6 9 16 66 -5 92 -33 9 -11 17
-15 17 -10 0 6 -4 14 -10 17 -15 9 -12 25 4 25 15 0 32 37 22 47 -16 16 -261
1 -451 -28 -90 -14 -290 -64 -359 -90 -130 -48 -193 -135 -180 -252 14 -133
122 -293 243 -357 20 -11 55 -34 77 -51 38 -28 47 -30 85 -24 l43 7 -35 18
c-18 10 -37 16 -42 13 -12 -7 -98 61 -147 117 -42 49 -108 150 -79 123 25 -25
28 -12 8 44 -25 74 -19 103 9 43 16 -35 22 -41 28 -27 4 11 -1 26 -12 40 -14
16 -8 14 21 -8 l40 -30 -18 29 c-10 15 -17 30 -14 32 3 3 1 20 -3 39 -8 33 -7
34 21 28 43 -8 35 12 -11 27 -40 13 -52 33 -26 43 16 6 141 1 216 -8 84 -11
145 -28 205 -58 33 -16 77 -38 98 -49 21 -11 47 -34 58 -52 11 -19 34 -39 52
-46 47 -17 60 -25 65 -38 2 -7 -4 -12 -14 -12 -9 0 -14 3 -11 6 4 4 -19 20
-50 35 -34 17 -61 25 -66 20 -9 -9 -82 22 -93 40 -3 5 -10 9 -16 9 -6 0 -5 -6
3 -16 11 -13 9 -14 -17 -9 -27 6 -26 5 11 -19 24 -15 47 -23 60 -20 13 3 27
-1 34 -10 11 -13 11 -16 -1 -16 -8 0 -20 6 -27 13 -10 10 -11 9 -6 -5 9 -24 0
-23 -37 3 -16 12 -31 19 -34 16 -3 -3 8 -13 25 -23 35 -21 41 -39 10 -29 -34
11 -14 -11 39 -42 40 -24 44 -28 24 -31 -12 -2 -47 8 -76 22 -30 14 -58 26
-62 26 -15 0 38 -38 69 -50 17 -6 40 -16 50 -21 11 -6 17 -6 17 1 0 7 7 7 21
-1 18 -9 19 -13 8 -20 -9 -6 -4 -7 15 -3 30 7 102 55 142 95 12 12 29 19 38
17 14 -2 9 -14 -27 -63 -93 -127 -206 -203 -352 -235 -92 -19 -116 -30 -71
-30 17 0 25 -4 20 -11 -4 -7 -29 -10 -65 -7 l-59 4 25 -26 c14 -14 25 -30 25
-35 0 -5 7 -17 17 -27 12 -14 31 -18 84 -18 37 0 71 4 74 10 8 13 97 52 103
45 8 -8 -48 -64 -90 -91 -37 -24 -48 -47 -28 -57 6 -3 5 -4 -2 -3 -18 4 -59
-47 -45 -56 18 -11 94 -9 159 4 31 7 60 9 63 6 3 -3 -8 -34 -25 -69 -16 -35
-30 -70 -30 -78 0 -19 -48 -73 -55 -62 -3 5 -1 12 5 16 35 22 -24 78 -125 121
-46 19 -143 14 -156 -8 -6 -9 -9 -6 -9 10 0 23 -25 31 -33 10 -3 -9 -11 -4
-25 12 -20 24 -21 24 -27 5 -9 -24 -43 -104 -54 -125 -13 -24 -41 -25 -41 -1
0 12 -6 21 -15 21 -9 0 -15 9 -15 25 0 14 -4 25 -9 25 -5 0 -14 15 -21 33
l-12 32 -17 -75 c-10 -41 -27 -97 -39 -124 -12 -27 -22 -54 -22 -60 0 -21 -77
-171 -114 -225 -20 -28 -36 -55 -36 -61 0 -5 -4 -10 -9 -10 -5 0 -16 -15 -25
-34 -8 -18 -22 -39 -31 -46 -8 -7 -15 -17 -15 -23 0 -6 -7 -17 -15 -26 -8 -9
-28 -32 -45 -51 -16 -19 -30 -31 -30 -28 0 18 92 180 132 233 88 117 189 304
207 385 13 55 14 307 2 314 -4 3 -8 -12 -8 -33 0 -44 -30 -98 -46 -82 -6 6
-23 11 -37 11 -18 0 -31 8 -40 25 -16 31 -21 31 -57 3 -119 -95 -290 -102
-405 -15 -24 18 -55 40 -70 49 -26 17 -58 69 -58 95 0 7 -4 13 -10 13 -5 0
-10 14 -10 30 0 17 -5 39 -12 50 -17 26 20 133 48 139 10 2 22 9 26 16 4 7 27
23 50 36 36 19 60 23 153 26 61 1 113 2 117 3 4 0 5 6 3 13 -3 6 6 17 20 23
19 10 27 9 39 -5 24 -28 63 -104 75 -148 6 -22 18 -44 26 -47 18 -6 20 -58 4
-89 -23 -44 -96 -105 -138 -117 -23 -6 -45 -18 -48 -26 -3 -7 -11 -14 -19 -14
-7 0 -18 -9 -24 -20 -12 -23 -8 -24 20 -10 11 6 28 14 39 19 12 6 22 6 29 -1
8 -8 13 -7 18 5 3 9 12 17 20 17 8 0 14 4 14 9 0 5 13 14 29 21 31 12 69 63
95 124 8 20 22 44 31 52 8 9 15 23 15 32 0 10 14 23 30 30 17 8 30 21 30 30 0
9 -29 44 -65 79 -36 35 -65 69 -65 75 0 7 18 -7 40 -31 41 -46 65 -53 32 -10
-24 31 -52 88 -52 106 0 8 -5 11 -10 8 -14 -9 -51 81 -53 127 -2 46 9 58 28
32 14 -19 14 -18 15 3 0 12 6 28 13 35 14 17 33 45 49 76 20 38 28 24 11 -20
-18 -51 -23 -192 -7 -208 8 -8 14 1 23 34 14 57 14 57 -4 50 -19 -8 -20 17 -1
71 8 22 17 53 21 68 3 16 20 42 38 59 40 36 212 134 252 143 17 4 39 10 50 15
51 21 89 32 210 64 72 18 150 43 175 54 38 18 57 20 120 16 41 -3 93 -14 115
-23z m3888 0 c4 -4 9 -24 10 -44 2 -20 5 -38 8 -40 2 -2 38 -29 79 -59 41 -30
95 -76 119 -102 l43 -48 -4 -71 c-3 -70 -39 -167 -60 -167 -5 0 -1 15 9 33 21
40 20 120 -2 172 -26 63 -91 140 -168 198 -94 70 -108 77 -156 77 -34 0 -41 3
-41 20 0 14 7 20 21 20 16 0 19 3 11 13 -9 10 2 12 56 9 37 -2 71 -7 75 -11z
m-4757 -71 c8 0 11 -6 7 -17 -4 -11 -3 -14 5 -9 7 4 12 14 12 22 0 8 2 14 5
14 12 0 55 -33 55 -42 0 -11 -61 -37 -100 -42 -55 -6 -193 -149 -238 -244 -31
-67 -25 -132 19 -209 16 -29 24 -53 19 -53 -6 0 -14 8 -17 18 -4 9 -17 31 -28
49 -28 41 -47 133 -42 204 4 54 32 119 50 119 5 0 25 14 44 30 18 17 38 30 44
30 5 0 35 19 65 41 41 32 53 46 49 60 -8 24 3 42 22 35 8 -3 21 -6 29 -6z
m-1430 -161 c312 -114 392 -143 633 -225 118 -41 218 -77 222 -81 4 -5 10 -17
13 -29 6 -20 2 -21 -66 -27 -39 -3 -77 -2 -82 2 -6 5 -60 25 -121 44 -187 60
-706 237 -787 269 -60 23 -78 34 -78 49 0 10 4 19 8 19 4 0 13 14 19 30 6 17
13 30 15 30 2 0 103 -36 224 -81z m3514 -103 c0 -16 -59 -66 -78 -66 -44 0
-139 -57 -170 -102 -42 -62 -76 -132 -104 -218 -33 -99 -42 -140 -30 -140 6 0
15 -22 22 -50 10 -42 18 -53 55 -75 55 -32 62 -31 40 1 -14 22 -55 148 -55
170 0 4 9 -1 20 -11 11 -10 20 -28 20 -41 0 -13 5 -26 10 -29 11 -7 10 2 -13
98 -8 33 -8 50 0 58 7 7 13 -4 18 -38 5 -26 7 -54 6 -60 -1 -7 3 -13 9 -13 5
0 17 -15 25 -32 l15 -33 -4 35 c-3 19 -12 64 -20 100 -18 74 -21 170 -6 170 6
0 10 -12 11 -27 0 -16 3 -35 5 -43 4 -14 54 -242 54 -248 0 -2 4 -1 8 2 4 3
-2 56 -15 118 -26 131 -29 181 -9 197 8 7 17 23 20 36 4 14 12 25 19 25 8 0
13 14 14 36 1 19 3 37 5 39 2 2 23 7 46 11 38 6 42 4 42 -14 0 -12 -8 -22 -21
-25 -20 -5 -20 -5 -3 14 19 21 7 25 -29 8 -16 -7 -24 -19 -24 -35 0 -24 20
-33 32 -14 14 22 25 8 25 -32 0 -50 12 -43 17 10 2 22 14 47 28 61 26 26 47
23 25 -4 -8 -10 -9 -15 -1 -15 6 0 11 5 11 11 0 6 7 9 15 5 8 -3 15 -1 15 4 0
6 12 10 28 10 20 0 23 3 12 10 -19 12 -8 22 14 14 9 -4 15 -12 13 -18 -3 -7 4
-27 14 -46 22 -42 24 -21 4 36 -27 80 0 103 132 111 64 5 90 2 117 -11 20 -9
36 -21 36 -25 0 -4 -8 -32 -18 -62 -11 -30 -22 -97 -26 -149 -3 -53 -13 -131
-21 -174 -17 -90 -19 -116 -6 -116 5 0 7 10 3 22 -4 18 -2 20 16 16 12 -4 20
-2 17 2 -3 5 -1 30 5 56 8 33 8 50 0 58 -14 14 -12 58 5 80 9 12 15 42 15 78
0 53 11 75 23 46 3 -8 6 -6 6 5 1 19 21 58 36 69 12 9 27 -1 20 -13 -4 -5 -2
-9 4 -9 6 0 16 10 22 22 l12 22 17 -22 c21 -26 30 -28 30 -7 0 8 5 15 11 15 5
0 7 5 4 10 -8 12 45 13 64 1 7 -5 11 -13 7 -19 -3 -5 1 -12 9 -16 8 -3 15 -12
15 -21 0 -8 4 -15 9 -15 11 0 9 19 -3 38 -14 22 1 25 33 6 16 -10 27 -22 24
-27 -3 -5 8 -22 23 -38 28 -29 29 -34 29 -134 0 -111 14 -121 16 -11 1 36 5
63 10 60 5 -3 9 -15 10 -27 0 -12 6 -38 13 -57 11 -31 14 -32 23 -16 9 17 11
16 17 -8 3 -14 11 -26 16 -26 14 0 12 17 -4 48 -7 15 -21 44 -30 65 -9 22 -42
77 -73 123 -31 47 -54 87 -51 90 29 29 119 -116 202 -324 48 -118 42 -139 -52
-204 -26 -18 -40 -34 -36 -41 4 -7 4 -9 -1 -5 -8 8 -65 -21 -65 -34 0 -13 75
4 130 30 86 43 108 78 120 197 11 107 25 155 45 155 14 0 29 -28 26 -47 -1 -7
2 -13 7 -13 4 0 14 -16 22 -35 8 -19 20 -35 27 -35 16 0 17 -12 1 -28 -10 -10
-6 -18 5 -9 6 3 56 -57 51 -62 -2 -2 -14 4 -26 15 -23 20 -17 3 10 -29 12 -13
13 -20 4 -29 -14 -14 -16 -38 -3 -38 5 0 11 8 14 18 3 15 5 15 11 1 7 -17 -48
-119 -64 -119 -5 0 -12 -9 -15 -20 -7 -21 -43 -46 -53 -36 -3 4 3 13 14 21 18
14 18 14 1 15 -20 0 -107 -58 -107 -71 0 -5 -10 -14 -22 -20 -17 -9 -13 -1 15
29 20 23 37 47 37 52 0 15 -26 12 -40 -5 -7 -9 -19 -14 -26 -11 -7 3 -35 -17
-61 -44 -26 -27 -53 -50 -60 -50 -6 0 -28 -19 -48 -42 -21 -24 -32 -33 -26
-21 10 19 8 20 -12 15 -21 -5 -21 -5 -5 19 9 13 22 24 30 23 7 -1 25 19 40 43
15 23 24 43 20 43 -4 0 -37 -30 -74 -67 -60 -61 -74 -85 -141 -228 -75 -159
-98 -223 -77 -210 5 3 10 14 10 23 0 9 10 37 22 62 l21 45 7 -40 c5 -24 4 -43
-2 -46 -13 -8 -29 -221 -19 -232 5 -5 11 11 15 35 7 45 88 217 143 306 37 58
49 62 112 32 35 -17 53 -20 104 -14 80 9 100 17 153 60 51 42 57 34 13 -19
-17 -20 -26 -37 -21 -37 14 0 37 30 63 79 13 25 24 40 26 34 7 -20 -46 -111
-79 -137 -51 -38 -125 -66 -176 -66 -51 0 -110 -17 -137 -40 -20 -16 -125
-146 -125 -154 0 -2 23 10 50 29 29 20 99 49 168 71 146 46 175 59 229 109 38
35 133 191 133 218 0 6 7 19 17 29 18 21 7 23 -34 7 -15 -6 -84 -12 -153 -14
-110 -2 -133 -5 -195 -30 -38 -15 -78 -35 -89 -44 -31 -27 -92 -123 -119 -186
-14 -33 -30 -61 -36 -63 -20 -7 -2 46 57 166 62 127 109 179 183 199 24 7 128
17 231 21 179 8 189 10 214 33 l27 24 -5 -32 c-2 -18 -1 -33 4 -33 4 0 8 -4 8
-10 0 -5 -6 -10 -13 -10 -7 0 -13 -9 -14 -19 -1 -14 3 -18 13 -14 21 8 18 -2
-20 -61 -18 -29 -37 -63 -40 -77 -4 -15 1 -10 14 13 25 46 46 61 36 27 -3 -13
-9 -35 -12 -49 -6 -24 -6 -24 9 -5 9 11 17 15 17 10 0 -14 -40 -127 -50 -140
-4 -5 -10 -23 -14 -40 -4 -16 -30 -68 -57 -115 -27 -47 -49 -95 -49 -107 0
-30 -38 -129 -55 -143 -11 -9 -11 -5 -1 32 7 24 16 61 20 83 5 30 -3 18 -32
-50 -22 -49 -42 -103 -46 -120 l-7 -30 22 25 21 25 -7 -30 c-4 -16 -11 -54
-15 -83 -5 -29 -14 -68 -19 -85 -6 -18 -15 -50 -20 -72 l-9 -40 -2 50 -2 50
-8 -40 c-4 -22 -6 -45 -3 -51 4 -12 -12 -121 -24 -159 -6 -19 -7 -18 -14 5 -5
17 -7 6 -7 -35 1 -33 -4 -79 -11 -103 -7 -24 -9 -52 -6 -62 4 -11 2 -20 -3
-20 -5 0 -13 16 -16 35 -4 19 -11 35 -16 35 -15 0 -12 -47 3 -54 8 -3 7 -9 -7
-20 -10 -8 -23 -13 -27 -10 -5 3 -9 -7 -10 -23 0 -24 -2 -25 -8 -8 -7 17 -10
15 -20 -18 -16 -47 -28 -55 -24 -14 3 32 3 32 -10 7 -6 -14 -18 -26 -25 -28
-14 -2 -16 14 -3 22 5 3 11 15 14 26 9 34 -11 12 -44 -51 -34 -64 -48 -74 -25
-18 11 28 12 36 1 46 -10 9 -14 8 -18 -8 -3 -12 -1 -17 6 -12 7 3 8 2 4 -2 -4
-5 -14 -10 -23 -11 -10 -2 -13 3 -9 17 12 37 -6 18 -27 -28 -11 -26 -27 -54
-35 -61 -12 -12 -13 -10 -7 14 4 16 11 37 16 47 5 10 7 22 3 25 -3 3 -8 -4
-12 -16 -8 -31 -26 -28 -20 4 5 29 -8 20 -27 -17 -18 -37 -37 -36 -31 3 l5 33
-10 -31 c-13 -42 -37 -63 -46 -40 -6 14 -9 15 -23 3 -9 -7 -25 -13 -36 -13
-26 1 -32 53 -11 95 9 16 16 39 16 50 0 21 44 51 75 51 9 0 37 20 63 44 26 24
61 51 79 60 39 19 83 75 83 104 0 32 -19 74 -45 102 -13 14 -32 43 -41 65 -9
22 -19 35 -21 28 -6 -17 27 -82 47 -93 45 -24 26 -110 -25 -110 -29 0 -31 7
-9 31 22 25 21 65 -3 97 -26 35 -38 83 -23 92 8 5 3 16 -14 35 -14 15 -26 34
-26 41 0 7 -5 16 -12 20 -7 5 -9 1 -5 -12 47 -148 70 -283 51 -303 -12 -12
-142 -20 -324 -20 -244 0 -319 7 -305 30 8 12 62 12 85 -1 11 -6 21 -6 24 -1
3 5 15 7 26 4 11 -3 27 0 35 7 8 6 19 9 24 6 5 -4 13 -2 16 4 4 6 16 8 27 4
19 -6 21 -3 15 32 -4 22 -7 51 -7 67 0 16 -5 27 -14 27 -10 0 -15 19 -18 70
-2 49 -9 75 -21 87 -16 16 -17 16 -17 1 0 -9 5 -20 10 -23 6 -3 11 -27 11 -53
2 -63 12 -106 24 -104 6 1 11 -14 13 -34 4 -45 -13 -67 -22 -30 -3 14 -13 26
-21 26 -12 0 -15 14 -16 63 -1 105 -18 114 -18 10 -1 -97 -14 -123 -26 -51 -8
46 14 218 28 218 4 0 5 10 2 21 -4 12 -9 67 -12 123 -2 55 -8 162 -12 236 l-8
135 0 -163 c0 -122 -3 -166 -12 -172 -19 -11 -22 -180 -4 -198 14 -15 16 -76
3 -107 -6 -14 -9 -4 -9 37 -1 31 -6 60 -12 63 -7 5 -9 31 -5 73 3 37 1 71 -5
78 -6 7 -6 20 0 36 9 25 -8 147 -43 303 -9 39 -21 96 -27 128 -7 35 -16 57
-24 57 -15 0 -20 14 -30 75 -6 38 -34 91 -114 214 -48 75 -49 56 -2 -30 23
-41 44 -81 47 -89 4 -8 19 -44 35 -79 32 -70 33 -75 19 -66 -6 4 -26 39 -46
78 -27 55 -55 91 -121 155 -88 84 -113 100 -92 60 9 -18 3 -15 -24 10 -41 40
-61 26 -23 -15 36 -39 22 -43 -17 -5 -32 31 -55 43 -42 22 13 -21 -9 -9 -47
26 -22 19 -42 34 -44 32 -2 -3 0 -19 6 -36 l9 -32 -30 17 c-27 16 -33 26 -30
46 0 4 -6 7 -14 7 -8 0 -15 7 -15 15 0 8 -4 14 -9 12 -15 -4 -74 77 -59 82 7
2 17 9 21 15 5 6 6 3 3 -8 -5 -15 3 -28 30 -53 21 -18 40 -33 42 -33 2 0 -5
15 -16 34 -25 42 -38 96 -23 96 6 0 11 10 11 23 0 14 11 29 28 39 26 17 26 17
5 18 -25 0 -29 10 -13 26 7 7 6 20 -4 40 -14 25 -14 29 0 37 21 12 22 10 29
-48 17 -128 66 -205 160 -250 53 -26 135 -43 134 -29 0 5 -32 29 -70 54 -39
25 -87 63 -106 85 -28 32 -35 35 -30 18 3 -13 2 -23 -3 -23 -23 0 -27 127 -5
156 14 18 14 18 15 -10 0 -45 14 -22 45 74 30 93 96 229 123 253 9 9 42 28 72
44 41 21 56 35 59 53 1 14 8 28 15 32 11 8 106 11 106 4z m-3680 -65 c69 -22
217 -67 330 -101 113 -34 230 -70 260 -80 139 -44 199 -55 232 -42 49 18 44 7
-7 -18 -26 -12 -60 -34 -76 -48 l-30 -25 -72 20 c-40 12 -196 56 -347 98 -151
43 -297 84 -325 92 -27 8 -57 16 -65 18 -8 1 -27 7 -42 13 -24 10 -27 15 -21
44 7 38 21 68 31 68 3 0 63 -18 132 -39z m3050 -96 c-23 -31 -58 -91 -79 -135
-21 -43 -42 -76 -46 -72 -4 4 -2 -3 4 -16 12 -22 8 -28 -43 -82 -51 -54 -55
-61 -54 -104 0 -40 4 -47 24 -52 28 -7 30 -23 9 -64 -11 -22 -24 -30 -56 -35
-30 -5 -44 -3 -51 6 -7 10 -8 8 -5 -8 4 -19 1 -23 -19 -23 -13 0 -24 -4 -24
-10 0 -5 -4 -10 -10 -10 -19 0 -10 46 19 101 20 37 30 75 34 121 4 38 12 78
18 90 6 13 48 59 93 103 81 79 105 105 180 198 52 64 56 60 6 -8z m-2640 -226
c118 -29 216 -53 218 -54 2 -2 -7 -22 -19 -45 -25 -47 -17 -47 -174 -10 -44
10 -143 32 -220 50 -77 17 -176 41 -220 52 -44 11 -89 21 -100 23 -11 2 -37 8
-59 14 -21 5 -45 7 -54 4 -12 -5 -14 0 -8 33 4 21 14 49 21 60 l14 22 193 -49
c106 -26 290 -71 408 -100z m-241 -147 c200 -39 368 -75 373 -80 12 -12 6 -87
-7 -86 -5 1 -30 4 -55 7 -25 3 -85 13 -135 22 -49 9 -139 25 -200 35 -60 11
-148 27 -195 35 -47 9 -115 21 -152 27 -74 13 -76 15 -57 82 9 34 13 38 37 33
15 -3 191 -36 391 -75z m-332 -157 c54 -8 215 -31 358 -50 143 -20 277 -38
298 -41 34 -5 41 -11 58 -51 10 -24 19 -47 19 -50 0 -3 -26 -2 -57 1 -142 15
-494 57 -553 66 -36 6 -85 12 -110 15 -25 3 -69 8 -99 12 l-53 6 6 36 c3 20 6
44 6 54 0 21 4 21 127 2z m1042 -283 c86 -82 264 -152 383 -152 69 0 150 28
190 67 32 31 36 22 10 -22 -10 -16 -23 -43 -29 -60 -49 -130 -67 -172 -79
-185 -12 -12 -14 -12 -14 1 0 10 -19 19 -62 28 -92 19 -198 51 -238 72 -62 31
-177 177 -224 284 -31 70 -32 79 -4 40 12 -16 42 -49 67 -73z m-1074 68 c82
-8 242 -22 635 -53 141 -12 144 -13 151 -37 4 -14 7 -35 8 -48 l1 -23 -107 6
c-60 3 -130 8 -158 10 -71 7 -572 38 -617 39 l-38 1 0 51 c0 28 3 54 7 57 8 9
9 9 118 -3z m3553 -48 c24 -6 59 -21 78 -34 35 -23 114 -141 154 -229 32 -72
22 -79 -14 -11 -30 54 -87 134 -121 167 -41 40 -205 78 -315 73 -60 -2 -80 0
-80 9 0 8 -13 13 -32 13 -58 0 -17 15 55 20 104 7 225 4 275 -8z m-403 -114
c3 -9 13 -22 22 -30 15 -12 15 -11 5 9 -18 33 -15 45 8 31 10 -7 31 -35 46
-63 55 -104 144 -175 252 -204 88 -23 124 -41 138 -69 20 -41 31 -45 26 -11
-3 22 -1 30 7 25 6 -4 11 -14 11 -23 0 -9 6 -21 13 -27 7 -6 28 -58 46 -114
33 -102 33 -104 16 -142 -15 -33 -15 -43 -4 -74 18 -49 29 -33 36 50 4 56 1
80 -17 129 -12 33 -25 76 -29 95 -4 19 -16 48 -25 63 -16 23 -16 27 -3 27 25
0 47 -29 48 -63 1 -33 26 -122 28 -98 1 8 9 19 18 26 10 8 17 26 17 48 0 28
-12 49 -56 103 -74 91 -122 136 -139 132 -9 -2 -13 4 -11 15 3 18 -13 23 -23
7 -8 -14 -118 -13 -152 1 -74 31 -90 40 -115 66 -27 28 -63 101 -55 110 3 2
33 -22 67 -53 l62 -58 96 -2 c54 -2 99 -3 102 -3 14 -3 -28 -21 -47 -21 -13 0
-23 -4 -23 -9 0 -14 31 -18 74 -9 25 6 43 5 50 -2 7 -7 5 -10 -7 -10 -9 0 -17
-5 -17 -11 0 -5 5 -7 10 -4 22 13 52 -9 91 -66 42 -62 63 -74 35 -22 -21 42
-105 133 -122 133 -16 0 -16 2 -8 24 20 51 106 -32 160 -154 21 -47 44 -92 51
-101 22 -27 34 -84 24 -112 -7 -17 -6 -28 2 -36 8 -8 8 -14 1 -19 -5 -4 -16
-43 -23 -87 -17 -109 -22 -128 -31 -118 -5 4 -2 39 6 77 16 76 15 184 -1 176
-5 -3 -11 -48 -11 -101 -1 -53 -6 -105 -12 -115 -5 -10 -13 -49 -16 -85 -8
-98 -25 -132 -22 -44 3 60 0 75 -22 107 -13 21 -26 38 -28 38 -2 0 -3 -19 -3
-42 1 -24 -4 -95 -10 -158 -15 -163 -15 -161 -13 -208 2 -33 10 -51 36 -80 39
-42 57 -38 30 6 -9 16 -14 37 -11 46 5 12 17 5 57 -35 27 -27 56 -49 62 -47
19 4 77 -34 84 -54 6 -21 34 -38 72 -43 40 -5 79 -22 85 -37 3 -8 6 -6 6 6 1
30 23 5 56 -64 16 -33 33 -60 38 -60 5 0 4 7 -3 15 -7 9 -10 18 -7 22 4 3 12
-6 18 -21 16 -34 23 -33 34 7 6 17 20 36 31 41 12 6 30 23 40 40 30 51 27 11
-4 -61 -17 -37 -32 -77 -34 -88 -2 -13 -15 -22 -42 -27 -35 -8 -44 -5 -77 22
l-38 30 -7 -23 c-7 -20 -8 -20 -20 13 -7 19 -13 32 -13 28 -1 -4 -13 -3 -27 2
-22 9 -25 8 -21 -4 4 -9 2 -18 -2 -21 -9 -5 -41 53 -41 73 0 6 -5 14 -12 18
-8 5 -9 0 -4 -17 20 -75 20 -75 5 -59 -8 8 -24 30 -34 48 -22 36 -36 42 -28
12 8 -30 -4 -24 -22 10 -27 53 -35 32 -9 -25 13 -31 24 -58 24 -61 0 -15 -20
11 -38 48 -11 24 -28 52 -37 63 -16 20 -16 19 -10 -5 5 -20 2 -19 -13 8 -19
34 -112 115 -122 106 -2 -3 6 -13 18 -23 13 -9 32 -37 43 -62 l19 -44 -20 27
c-14 18 -27 25 -37 21 -11 -4 -14 -3 -9 5 4 7 0 19 -8 27 -8 9 -23 42 -32 75
-9 33 -23 65 -30 71 -8 7 -14 30 -14 56 0 30 -7 53 -20 70 -11 14 -20 38 -20
53 0 15 -6 48 -14 73 -8 26 -11 49 -6 52 4 3 11 -5 15 -18 4 -14 8 -17 12 -9
3 7 0 19 -7 27 -6 7 -13 33 -15 57 -2 24 -7 52 -11 63 -7 18 -6 18 15 -2 17
-16 21 -28 16 -45 -4 -15 -3 -19 3 -10 12 18 22 -16 22 -75 0 -23 4 -44 9 -47
9 -6 6 45 -9 144 -4 30 -6 57 -4 59 14 15 25 -28 30 -122 6 -95 5 -107 -9
-107 -22 0 -22 -39 0 -88 l17 -37 5 50 c6 47 6 154 0 325 -1 44 -4 59 -6 37
-6 -50 -26 -43 -35 13 -11 61 -22 65 -15 5 6 -42 5 -47 -7 -33 -7 9 -19 42
-26 73 -7 30 -17 55 -21 55 -4 0 -9 -24 -11 -52 l-3 -53 -19 57 c-11 32 -22
55 -25 53 -6 -7 -2 -93 5 -119 4 -10 2 -16 -3 -13 -6 4 -13 33 -16 65 -4 32
-9 66 -13 75 -11 29 -24 18 -18 -15 4 -31 4 -32 -7 -8 -6 14 -11 43 -12 65 0
22 -2 30 -4 18 -7 -40 -29 -25 -47 32 -9 30 -19 55 -21 55 -7 0 7 -75 22 -118
8 -24 13 -45 11 -48 -5 -5 -25 45 -51 131 -18 56 -66 156 -66 139 -1 -6 5 -27
13 -45 7 -19 16 -52 19 -74 l7 -40 -25 30 c-46 55 -66 85 -58 85 5 0 17 -14
28 -32 30 -52 28 -18 -5 61 -16 41 -30 82 -30 92 0 11 -4 19 -10 19 -5 0 -10
17 -10 38 0 27 -12 58 -44 109 -43 69 -43 70 -15 54 16 -9 31 -23 34 -33z
m1781 41 c4 -8 9 -8 17 0 6 6 19 11 29 11 17 0 17 -2 4 -28 -36 -69 -100 -89
-188 -58 -57 20 -73 38 -42 50 26 10 83 7 103 -5 20 -13 71 -5 71 11 0 5 -13
7 -30 4 -28 -6 -39 4 -23 19 10 11 51 8 59 -4z m-4566 -109 c162 -6 327 -10
366 -10 l71 0 12 -37 c7 -21 15 -44 18 -51 4 -10 -46 -11 -239 -8 -133 3 -352
6 -485 8 l-241 3 -4 27 c-3 16 -3 42 0 59 l4 30 102 -6 c55 -3 234 -10 396
-15z m1649 -89 c8 -5 9 -11 3 -15 -26 -16 -35 -167 -14 -240 19 -65 12 -333
-9 -346 -21 -13 -37 7 -42 53 -7 58 -27 140 -39 154 -12 15 -20 183 -9 197 10
12 43 122 45 148 1 19 31 58 43 58 5 0 14 -4 22 -9z m100 -25 c94 -83 99 -90
105 -167 5 -59 3 -75 -10 -90 -22 -24 -13 -99 17 -140 19 -28 23 -29 38 -15
10 9 23 16 30 16 6 0 14 7 18 16 4 12 9 8 19 -16 19 -43 18 -50 -6 -50 -11 0
-20 -7 -20 -16 0 -8 -11 -30 -25 -48 -23 -30 -24 -35 -14 -100 5 -38 12 -72
15 -77 2 -5 9 -45 14 -91 5 -45 16 -88 24 -96 9 -9 12 -29 10 -56 l-4 -41 20
55 c10 30 19 48 19 39 1 -9 7 -19 15 -22 7 -3 17 -18 20 -33 10 -37 61 -101
89 -110 47 -14 107 -97 107 -149 0 -12 13 -34 30 -48 18 -17 27 -33 24 -42 -6
-16 -16 -14 -16 2 1 15 -30 42 -42 37 -7 -3 -19 2 -26 11 -17 20 -30 19 -30
-2 0 -10 20 -30 45 -47 41 -25 77 -66 59 -66 -4 0 -34 24 -68 53 -34 29 -83
68 -109 86 -27 18 -71 52 -97 75 -27 22 -65 54 -85 70 -67 53 -88 100 -92 195
-1 47 -7 98 -12 115 -5 17 -9 50 -7 73 1 24 -1 73 -5 110 -4 40 -3 73 2 80 6
7 6 13 0 17 -5 3 -7 15 -4 25 3 10 0 21 -5 25 -5 3 -8 21 -5 40 4 37 -12 59
-21 29 -2 -10 -8 -56 -11 -103 -7 -84 -35 -226 -56 -285 -43 -116 -136 -279
-188 -329 -17 -17 -31 -35 -31 -40 0 -6 -10 -22 -23 -36 -28 -31 -107 -137
-107 -145 0 -9 -42 -47 -47 -42 -9 10 120 190 187 262 15 17 47 61 70 99 109
181 155 348 167 603 5 125 3 157 -12 208 -24 83 -42 170 -37 184 5 16 40 4 71
-23z m-241 -128 c-19 -56 -68 -136 -158 -258 -39 -52 -90 -142 -90 -156 0 -9
40 48 76 106 44 73 135 192 141 186 3 -3 -11 -30 -31 -59 -39 -57 -41 -77 -10
-136 8 -14 14 -34 14 -43 0 -9 5 -20 10 -23 6 -3 8 -16 5 -28 -3 -12 -7 -43
-9 -69 -3 -26 -8 -52 -11 -58 -7 -12 -63 -4 -80 11 -12 12 -48 11 -40 -1 3 -5
37 -19 75 -31 84 -25 98 -35 106 -76 5 -26 3 -33 -9 -33 -9 0 -18 4 -22 9 -13
22 -96 69 -190 109 -121 51 -134 59 -118 70 6 4 17 20 23 36 12 32 65 105 126
175 76 86 131 169 143 217 27 102 32 113 50 111 18 -1 17 -4 -1 -59z m-996 42
c13 -7 33 -24 46 -39 l23 -26 -23 -6 c-27 -7 -208 -16 -478 -25 -102 -3 -273
-9 -380 -14 -107 -4 -196 -7 -198 -6 -1 2 -3 27 -5 57 l-2 54 225 3 c124 1
254 3 290 5 244 9 481 7 502 -3z m1969 -150 c5 0 9 -37 9 -82 0 -106 32 -215
90 -304 24 -35 41 -67 38 -69 -2 -3 -25 17 -50 43 -114 117 -117 122 -138 212
-16 69 -24 174 -13 167 6 -4 13 -33 16 -66 4 -33 15 -74 26 -92 l19 -31 -5 83
c-3 46 -10 89 -15 96 -5 6 -6 28 -1 50 5 28 8 32 11 16 2 -13 8 -23 13 -23z
m-1796 -23 c33 -28 25 -53 -18 -61 -18 -3 -108 -12 -202 -21 -93 -8 -186 -17
-205 -20 -19 -2 -107 -9 -195 -15 -88 -6 -191 -15 -230 -21 -112 -16 -299 -28
-308 -19 -11 10 -27 79 -21 94 2 6 34 12 77 13 75 3 429 26 647 43 69 6 175
13 235 16 61 4 112 8 114 10 15 13 83 1 106 -19z m3 -182 l3 -41 -73 -12 c-40
-7 -91 -15 -113 -18 -22 -2 -51 -6 -65 -9 -14 -3 -43 -7 -65 -10 -22 -2 -56
-7 -75 -10 -19 -3 -51 -7 -70 -10 -55 -7 -315 -44 -425 -60 -89 -13 -158 -22
-219 -28 -21 -2 -66 54 -66 83 0 14 13 19 63 24 112 12 1031 127 1034 129 1 2
17 3 35 2 31 0 33 -2 36 -40z m1450 -11 c20 -68 70 -171 99 -203 16 -16 42
-48 58 -71 31 -43 125 -118 230 -184 33 -21 73 -50 89 -65 40 -37 126 -140
126 -152 0 -23 -35 -5 -72 36 -22 25 -45 45 -50 45 -6 0 13 -26 41 -59 28 -32
51 -65 52 -72 0 -11 2 -11 6 -1 7 19 43 -15 43 -41 0 -17 -2 -18 -17 -6 -9 8
-14 10 -11 4 42 -80 105 -226 124 -292 13 -46 35 -111 49 -145 14 -34 25 -66
25 -71 0 -6 15 -28 33 -51 18 -23 51 -70 72 -106 46 -78 166 -242 173 -236 2
3 -22 44 -54 91 -167 246 -242 386 -258 475 l-6 35 30 -35 c41 -49 83 -130
120 -231 36 -100 105 -201 190 -277 36 -32 57 -58 54 -67 -7 -17 8 -46 64
-118 24 -32 42 -60 39 -63 -8 -9 -149 116 -191 169 -22 29 -51 63 -64 77 -29
30 -58 75 -102 155 -43 80 -50 86 -50 45 0 -45 -12 -29 -34 45 -10 33 -36 106
-57 161 -22 56 -51 139 -65 184 -73 238 -200 399 -398 503 -59 31 -112 57
-116 57 -5 0 -21 5 -37 12 -15 6 -31 11 -35 10 -4 -1 -20 15 -35 35 -15 20
-38 46 -50 58 -24 23 -56 89 -47 97 2 3 -6 52 -20 109 -14 57 -23 106 -19 109
3 3 8 -1 10 -7 9 -26 25 -13 20 16 -6 29 13 86 24 73 3 -4 11 -25 17 -48z
m-1423 -145 c22 -41 19 -47 -22 -54 -21 -4 -103 -20 -183 -35 -80 -16 -228
-45 -330 -64 -102 -20 -225 -45 -275 -56 -49 -10 -126 -25 -170 -34 -161 -29
-150 -29 -163 -1 -7 14 -12 39 -12 54 0 26 4 29 48 34 26 4 94 15 152 26 58
10 263 46 455 80 193 34 375 67 405 74 66 15 76 13 95 -24z m518 -85 c37 -19
70 -33 74 -31 5 3 37 -21 73 -54 50 -45 66 -55 71 -42 4 14 7 13 23 -3 18 -17
18 -19 -8 -40 -14 -13 -26 -30 -26 -39 0 -8 -4 -15 -8 -15 -5 0 -15 -12 -23
-27 -18 -36 -57 -78 -66 -70 -3 4 2 18 11 32 16 24 15 28 -8 88 -14 34 -29 80
-34 102 -7 36 -12 41 -52 53 -25 8 -58 18 -74 23 -16 5 -31 7 -33 5 -11 -11
25 -65 88 -131 40 -41 69 -78 65 -82 -3 -3 -23 12 -43 34 -39 40 -124 103
-141 103 -18 0 -22 30 -7 63 7 17 16 40 19 50 8 24 23 22 99 -19z m-505 -90
l3 -40 -48 -11 c-149 -35 -958 -239 -1026 -259 -13 -4 -22 6 -38 41 -20 45
-20 83 1 70 8 -5 114 18 575 126 44 10 112 26 150 34 39 8 133 30 210 49 77
19 147 33 155 32 10 -1 16 -15 18 -42z m473 -76 c36 -32 73 -81 57 -75 -25 9
-22 -6 6 -32 29 -28 39 -58 20 -65 -8 -3 -14 -13 -14 -21 0 -12 6 -15 21 -10
20 7 20 6 5 -23 -22 -42 -36 -49 -36 -18 0 14 -3 25 -8 24 -12 -4 -57 35 -66
57 -4 11 -10 37 -13 59 -4 30 -2 37 8 31 11 -6 12 -5 2 6 -7 7 -13 19 -13 27
0 12 3 12 15 2 12 -10 15 -9 15 5 0 10 -8 24 -17 31 -10 7 -13 14 -7 14 5 0
17 -6 25 -12z m-446 -75 c9 -20 12 -40 8 -44 -8 -7 -148 -54 -248 -83 -33 -10
-175 -54 -315 -97 -140 -44 -286 -89 -325 -101 -38 -11 -84 -27 -101 -36 -47
-23 -78 -10 -103 41 -27 55 -26 57 7 57 32 0 130 27 537 145 165 48 341 99
390 112 50 14 97 29 105 34 24 14 29 11 45 -28z m1505 -1 c0 -11 35 -52 44
-52 4 0 40 -27 81 -60 82 -67 180 -176 237 -264 36 -57 44 -77 68 -173 8 -32
17 -44 34 -49 27 -6 42 -44 23 -56 -8 -5 -4 -8 9 -8 28 0 56 -43 50 -75 -3
-13 -16 -35 -30 -48 -14 -13 -23 -27 -19 -30 3 -4 0 -13 -6 -21 -7 -8 -10 -20
-6 -26 3 -5 1 -10 -5 -10 -7 0 -9 -7 -6 -16 4 -9 2 -22 -4 -29 -9 -10 -4 -17
17 -27 29 -14 42 -40 88 -188 15 -47 39 -103 53 -125 50 -78 214 -235 296
-282 11 -7 15 -13 8 -13 -51 0 -259 167 -385 310 -59 67 -112 162 -104 185 3
7 2 16 -3 21 -11 12 -16 66 -7 81 4 6 3 15 -3 18 -6 4 -8 14 -5 24 3 9 -2 26
-10 37 -14 19 -14 18 -15 -3 0 -26 -9 -29 -34 -10 -17 12 -17 17 -3 73 33 127
33 224 1 224 -8 0 -12 5 -9 10 3 6 -1 10 -10 10 -11 0 -15 8 -13 26 2 15 -2
29 -9 31 -9 3 -12 -19 -13 -79 -1 -46 -2 -96 -4 -113 -1 -16 -3 -42 -4 -57 -1
-16 -6 -28 -10 -28 -4 0 -8 48 -7 108 0 136 -15 202 -76 327 -53 109 -73 140
-166 268 -65 88 -70 97 -53 97 6 0 10 -4 10 -8z m3706 -102 c8 -40 19 -81 24
-91 6 -10 10 -27 10 -38 0 -12 4 -21 9 -21 6 0 2 29 -8 65 -20 71 -15 83 13
33 11 -18 39 -57 64 -86 47 -56 160 -220 185 -269 8 -15 17 -53 20 -83 5 -47
4 -51 -6 -30 -14 29 -32 50 -45 50 -14 0 -47 41 -77 95 -15 28 -36 58 -46 68
-10 10 -19 22 -19 28 0 5 -11 7 -25 3 -19 -5 -25 -2 -25 11 0 9 -11 35 -24 58
-37 66 -104 318 -77 291 6 -6 18 -43 27 -84z m-5149 -42 c44 -50 46 -48 -132
-112 -55 -19 -165 -60 -245 -89 -80 -30 -228 -85 -330 -122 -102 -37 -205 -76
-230 -87 -25 -11 -52 -21 -60 -23 -8 -2 -19 -4 -25 -5 -26 -6 -37 3 -55 43
-26 56 -25 66 7 65 28 -1 126 31 428 136 88 31 219 77 290 101 72 25 173 60
225 79 52 19 98 35 101 35 3 1 15 -9 26 -21z m107 -149 c14 -11 24 -25 20 -30
-6 -11 -96 -53 -219 -104 -49 -20 -123 -52 -163 -71 -41 -19 -76 -34 -79 -34
-2 0 -84 -34 -181 -76 -98 -41 -186 -79 -197 -84 -11 -4 -66 -29 -121 -55 -98
-46 -102 -47 -127 -31 -14 10 -32 31 -40 49 -16 31 -14 52 3 42 8 -5 176 58
255 95 11 5 94 39 185 75 91 35 264 105 385 155 121 49 227 89 236 90 9 0 28
-9 43 -21z m1461 -87 c-9 -47 -70 -170 -135 -270 -89 -139 -142 -284 -156
-425 -4 -37 -10 -64 -15 -60 -11 12 7 152 31 241 22 78 58 158 107 234 70 109
153 277 153 308 0 13 4 18 11 14 7 -4 8 -20 4 -42z m-1377 -43 c10 -52 -5 -61
-380 -247 -200 -99 -403 -199 -453 -222 -49 -24 -92 -47 -95 -50 -3 -4 -17
-10 -32 -13 -15 -4 -33 -13 -41 -21 -14 -14 -31 -20 -53 -17 -15 1 -64 73 -64
93 0 11 6 15 21 11 13 -4 67 16 147 55 70 33 192 90 272 127 80 37 186 86 235
109 50 24 113 53 140 65 28 12 98 47 155 76 107 54 142 62 148 34z m890 -100
c-5 -3 -6 -13 -3 -21 4 -9 1 -19 -4 -23 -6 -3 -9 -11 -5 -16 3 -5 1 -15 -4
-22 -7 -8 -7 -28 -1 -57 26 -127 38 -203 34 -210 -11 -18 -14 -159 -5 -210 5
-30 11 -75 13 -98 2 -24 9 -47 16 -52 9 -5 10 -10 2 -14 -6 -4 -11 -22 -12
-39 -1 -30 -2 -29 -13 13 -7 25 -17 54 -23 65 -14 27 -35 116 -28 123 3 3 5 0
5 -6 0 -7 4 -12 9 -12 5 0 7 9 4 20 -3 11 -9 18 -13 15 -11 -7 -15 6 -45 160
-33 169 -42 195 -66 195 -16 0 -17 4 -8 27 5 14 7 32 5 40 -10 25 79 143 108
143 8 0 18 5 22 12 5 8 10 6 14 -8 4 -10 3 -22 -2 -25z m145 -36 c-7 -17 5
-17 23 2 21 21 33 19 27 -5 -3 -11 -12 -20 -20 -20 -8 0 -11 -4 -8 -10 13 -20
33 -9 40 23 6 30 7 31 15 10 5 -13 14 -23 19 -23 17 0 -9 -62 -57 -132 -47
-70 -61 -81 -63 -50 -9 164 0 266 21 232 5 -7 6 -19 3 -27z m-551 3 c18 -13
15 -56 -4 -56 -6 0 -7 -10 -4 -22 4 -13 9 -32 12 -43 3 -11 6 -24 8 -30 4 -13
18 -48 23 -57 2 -5 0 -8 -6 -8 -5 0 -13 9 -16 20 -7 23 -35 27 -35 6 0 -8 10
-22 22 -30 16 -11 19 -18 10 -28 -13 -16 1 -44 16 -34 6 4 8 -2 5 -14 -3 -11
-9 -20 -14 -20 -5 0 -7 -11 -3 -25 5 -19 2 -25 -10 -25 -19 0 -21 -11 -5 -27
13 -13 4 -33 -17 -33 -16 0 -18 -14 -4 -40 7 -13 6 -28 -4 -52 l-14 -33 -11
28 c-6 16 -11 33 -11 40 0 7 -3 7 -9 1 -13 -15 -21 -73 -11 -79 6 -4 8 -11 5
-16 -4 -5 5 -19 18 -32 18 -19 21 -28 14 -45 -7 -16 -5 -28 7 -46 22 -34 19
-96 -4 -96 -15 0 -60 80 -60 107 0 16 -12 53 -26 83 -29 63 -56 158 -48 171 3
5 7 34 10 66 3 32 10 63 15 69 5 6 6 14 3 17 -3 3 -3 11 1 17 4 7 9 32 11 56
2 25 10 55 19 67 8 12 15 30 15 40 0 30 51 117 69 117 9 0 24 -6 33 -14z
m2396 -20 c15 -7 39 -19 53 -26 15 -6 37 -22 51 -33 69 -62 67 -61 85 -46 15
13 16 12 10 -11 -4 -14 -7 -31 -7 -37 0 -7 -4 -13 -10 -13 -5 0 -10 7 -10 15
0 21 -17 19 -30 -4 -14 -27 -13 -36 5 -21 32 26 46 -14 20 -60 l-13 -25 -11
28 c-7 17 -18 27 -31 27 -26 0 -25 14 1 57 21 33 21 35 3 31 -11 -2 -20 -13
-22 -26 -4 -25 -20 -29 -29 -7 -3 9 2 22 13 30 11 7 16 17 12 21 -4 4 -13 2
-21 -4 -10 -8 -16 -6 -26 9 -11 19 -14 20 -30 5 -17 -16 -19 -15 -35 9 -25 38
-38 30 -16 -10 23 -41 24 -45 10 -45 -5 0 -10 5 -10 10 0 6 -9 19 -21 31 -24
24 -55 18 -44 -9 4 -9 9 -26 12 -37 l4 -20 -16 20 c-9 11 -20 27 -25 35 -16
27 -21 3 -5 -26 18 -35 19 -57 4 -52 -7 2 -19 25 -27 51 l-15 47 34 34 c27 27
79 58 107 65 2 1 16 -5 30 -13z m1433 -74 c49 -47 103 -143 119 -213 7 -30 17
-62 21 -71 10 -18 19 -78 24 -143 1 -22 6 -48 10 -57 4 -11 -5 -56 -24 -115
-24 -75 -44 -114 -84 -167 -29 -38 -56 -77 -62 -87 -5 -11 -13 -19 -17 -19 -5
0 -8 -7 -8 -15 0 -9 -10 -19 -22 -24 -24 -9 -158 -26 -291 -37 -74 -6 -79 -5
-75 12 3 16 14 20 61 22 31 2 57 7 57 12 0 6 -9 10 -20 10 -30 0 -24 16 15 40
19 12 35 25 35 29 0 4 25 29 55 55 46 39 58 46 70 36 12 -10 15 -9 15 9 0 11
5 21 10 21 17 0 67 62 96 118 14 28 31 52 36 52 6 0 6 6 -1 14 -6 8 -11 18
-10 22 4 22 -2 33 -21 39 -15 5 -20 15 -20 39 0 17 -4 36 -10 42 -5 5 -11 68
-14 139 -3 72 -10 150 -16 175 -11 46 -7 85 13 109 8 9 12 10 15 1 2 -6 21
-28 43 -48z m-4398 -23 c-5 -45 -7 -47 -72 -84 -71 -42 -174 -99 -261 -147
-30 -17 -80 -44 -110 -60 -30 -17 -95 -54 -145 -83 -107 -61 -154 -85 -170
-85 -7 0 -18 -7 -25 -15 -7 -8 -21 -15 -31 -15 -10 0 -21 -9 -24 -21 -9 -27
-25 -20 -57 27 -31 45 -35 64 -12 64 15 0 57 21 299 150 39 21 111 59 160 85
50 26 108 58 130 70 75 43 318 166 320 163 2 -2 1 -24 -2 -49z m3763 -175
c-42 -86 -90 -177 -108 -203 -98 -141 -118 -174 -118 -187 0 -25 17 -7 80 85
33 48 69 96 80 106 18 16 20 16 20 2 0 -10 -4 -17 -10 -17 -5 0 -10 -6 -10
-14 0 -8 -6 -17 -12 -20 -10 -5 -10 -7 0 -12 20 -9 14 -30 -18 -64 -16 -18
-30 -27 -30 -21 0 7 11 23 24 36 14 14 21 27 16 30 -5 3 -34 -25 -64 -63 -73
-90 -196 -195 -196 -166 0 3 16 26 35 51 31 40 46 83 30 83 -14 0 -64 -31 -68
-42 -2 -7 -8 -10 -12 -6 -13 13 23 44 64 57 87 25 207 185 284 376 16 39 35
77 43 86 8 8 14 22 14 30 0 16 21 41 28 34 3 -2 -30 -75 -72 -161z m-3741 -26
c6 -24 0 -31 -84 -87 -50 -34 -137 -90 -193 -125 -57 -34 -165 -102 -240 -149
-76 -48 -145 -87 -153 -87 -9 0 -13 -4 -10 -10 3 -5 -2 -10 -13 -10 -10 0 -29
-11 -42 -25 -29 -31 -49 -21 -85 39 -30 52 -31 56 -4 49 21 -6 98 31 155 74
17 13 33 23 35 23 3 0 140 81 304 179 316 190 316 189 330 129z m1575 -43 c7
-25 17 -48 21 -51 12 -7 12 -74 0 -74 -5 0 -13 17 -19 38 -9 33 -10 34 -11 9
-3 -87 116 -325 172 -343 11 -4 26 -12 33 -18 6 -6 22 -18 34 -26 12 -8 28
-20 34 -25 29 -27 156 -125 161 -125 4 0 36 -26 72 -57 162 -142 179 -157 312
-254 29 -21 57 -39 61 -39 11 0 109 -97 146 -145 48 -62 87 -145 90 -195 2
-40 1 -42 -8 -20 -65 148 -81 173 -151 240 -49 48 -89 76 -127 91 -30 12 -60
28 -66 35 -6 8 -16 14 -22 14 -19 0 -77 65 -74 82 3 17 -139 138 -162 138 -8
0 -32 20 -55 45 -23 25 -46 43 -50 41 -4 -3 -44 22 -87 55 -228 173 -321 325
-332 543 -5 106 5 122 28 41z m-841 -25 c14 -22 14 -23 0 -18 -12 5 -10 -4 8
-39 12 -25 28 -52 35 -60 9 -11 9 -16 -1 -23 -10 -6 -10 -9 -1 -15 6 -4 9 -14
5 -22 -4 -13 -3 -14 9 -4 17 14 31 -1 22 -24 -3 -8 -1 -15 4 -15 6 0 10 -7 10
-16 0 -14 -3 -14 -15 -4 -27 22 -27 4 0 -28 14 -16 25 -35 25 -41 0 -6 7 -11
16 -11 11 0 14 -6 10 -17 -6 -17 -5 -17 8 0 19 24 23 22 24 -13 0 -17 -2 -29
-6 -27 -4 2 -15 -5 -25 -15 -17 -18 -16 -19 9 -43 15 -14 31 -25 37 -25 5 0 6
-7 3 -16 -3 -8 -2 -12 3 -9 5 3 12 -4 15 -15 3 -11 9 -29 12 -40 4 -15 1 -18
-9 -14 -8 3 -13 13 -10 23 5 21 -8 29 -77 46 -23 6 -23 5 8 -20 17 -14 32 -34
32 -43 0 -14 67 -72 84 -72 3 0 22 -11 42 -25 21 -14 51 -25 70 -25 20 0 64
-16 108 -39 121 -65 282 -85 471 -61 44 6 117 16 163 22 70 10 91 9 135 -4 29
-9 73 -19 99 -23 26 -3 50 -10 53 -16 8 -12 -3 -11 -110 6 -80 13 -104 13
-215 0 -128 -16 -162 -25 -95 -25 57 0 32 -15 -28 -16 -237 -7 -347 -3 -464
16 -69 12 -127 19 -130 16 -7 -7 -73 23 -108 50 -18 13 -35 21 -38 17 -4 -3
-7 -2 -7 4 0 16 -48 34 -54 20 -3 -7 -4 -4 -3 5 1 9 -16 30 -42 48 -24 18 -40
27 -37 21 16 -24 -12 -9 -45 26 -18 20 -28 33 -21 29 18 -10 15 0 -11 42 -56
88 -114 330 -98 403 l8 34 6 -35 c56 -323 54 -316 103 -360 22 -21 26 -22 20
-6 -5 16 -4 17 9 6 8 -7 15 -20 15 -29 0 -9 8 -23 18 -31 93 -79 127 -104 192
-142 41 -25 91 -50 110 -57 82 -29 508 -78 488 -56 -4 5 -65 11 -135 16 -118
7 -279 38 -368 71 -115 43 -255 156 -323 260 -51 78 -66 152 -66 308 1 171 15
208 53 150z m-710 -104 c14 -58 14 -66 -3 -66 -8 0 -16 -3 -18 -8 -3 -7 -36
-31 -356 -256 -83 -60 -154 -112 -157 -117 -3 -4 -12 -6 -20 -2 -8 3 -15 1
-15 -5 0 -5 -13 -15 -30 -22 -16 -7 -30 -18 -30 -24 0 -7 -5 -17 -11 -23 -15
-15 -73 29 -95 69 -18 35 -18 36 9 31 18 -4 72 28 218 127 107 73 255 173 331
222 75 49 139 96 142 104 10 26 24 14 35 -30z m1294 -158 c18 -12 36 -28 40
-35 4 -7 17 -13 27 -13 10 0 22 -5 26 -12 5 -8 2 -9 -9 -5 -22 8 -21 3 6 -38
12 -19 31 -36 42 -39 11 -3 30 -14 42 -26 12 -11 29 -20 37 -20 8 0 24 -12 35
-26 17 -21 21 -23 21 -9 0 13 3 15 13 6 8 -6 16 -8 19 -5 3 3 9 -7 12 -23 6
-21 9 -24 17 -12 7 12 9 11 9 -3 0 -10 6 -18 14 -18 7 0 19 -7 26 -15 11 -13
10 -14 -4 -9 -9 3 -16 2 -16 -2 1 -20 17 -31 54 -37 22 -4 47 -13 55 -22 14
-13 12 -15 -17 -15 -18 0 -32 -4 -32 -10 0 -5 26 -10 58 -10 68 0 102 -8 102
-24 0 -8 -53 -11 -185 -10 -172 1 -186 3 -222 24 -68 41 -107 63 -155 87 -27
13 -48 31 -48 39 0 19 54 19 70 -1 23 -27 90 -77 90 -67 0 6 -21 34 -46 64
-101 117 -136 201 -138 333 0 50 4 104 9 120 8 25 10 16 13 -57 3 -86 3 -88
35 -110z m387 23 c25 -51 182 -208 276 -277 43 -32 99 -77 124 -100 59 -54
321 -249 395 -294 71 -43 162 -141 204 -219 47 -89 37 -95 -18 -10 -52 79
-138 169 -193 202 -18 11 -57 36 -87 56 -29 20 -60 41 -69 46 -46 29 -236 177
-295 229 -37 33 -76 65 -87 71 -10 5 -65 51 -122 101 -102 91 -158 164 -174
229 -7 28 -6 29 10 16 10 -8 26 -31 36 -50z m2414 -3 c-44 -86 -520 -515 -719
-649 -81 -54 -159 -134 -199 -202 -32 -54 -43 -57 -22 -5 36 86 128 184 228
241 66 38 256 192 358 290 47 45 125 116 174 156 49 41 96 88 105 105 14 26
78 96 88 96 2 0 -4 -15 -13 -32z m-4030 -51 c15 -21 26 -39 25 -41 -15 -9 -85
-61 -89 -66 -3 -3 -32 -26 -65 -52 -344 -270 -369 -288 -388 -282 -13 4 -17 2
-12 -5 3 -6 -8 -28 -25 -47 -24 -28 -28 -39 -20 -50 7 -7 10 -19 8 -26 -3 -8
-10 -4 -18 11 -7 14 -26 35 -42 49 -25 22 -58 70 -58 87 0 4 8 4 19 0 18 -6
43 12 379 267 77 58 158 118 179 132 22 15 46 38 53 52 8 13 16 21 20 17 3 -5
19 -25 34 -46z m103 -162 l28 -24 -25 -23 c-29 -28 -132 -119 -175 -157 -17
-14 -62 -53 -100 -86 -39 -33 -86 -74 -105 -92 -19 -18 -38 -33 -42 -33 -4 0
-24 -16 -44 -35 -19 -19 -40 -35 -45 -35 -5 0 -14 -11 -21 -25 -8 -19 -8 -28
2 -40 7 -8 10 -18 7 -22 -8 -7 -121 105 -130 129 -5 15 -2 16 24 11 25 -5 36
0 67 29 20 20 71 64 112 98 41 35 138 115 215 180 77 64 146 124 154 133 19
24 45 21 78 -8z m6 -306 c-70 -69 -166 -160 -213 -204 -47 -44 -86 -83 -88
-87 -2 -5 -9 -8 -15 -8 -7 0 -18 -9 -25 -20 -7 -11 -18 -20 -25 -20 -8 0 -19
-11 -25 -25 -11 -25 -13 -25 -41 -10 -33 17 -87 82 -77 92 3 3 6 1 6 -5 0 -7
11 -12 24 -12 18 0 60 35 151 123 70 67 132 125 139 129 7 4 66 59 131 123
l119 116 34 -34 34 -34 -129 -124z m5501 -88 l226 -213 -32 -44 c-17 -25 -35
-43 -40 -42 -14 5 -448 438 -448 448 0 5 6 13 14 17 7 4 19 18 25 31 7 13 16
22 20 20 5 -2 110 -99 235 -217z m-3234 124 c120 -65 161 -103 209 -196 21
-42 56 -98 76 -124 33 -43 36 -45 30 -19 l-6 29 26 -30 c18 -21 24 -38 21 -55
-5 -30 7 -59 18 -41 12 18 23 12 30 -15 8 -32 -10 -57 -24 -34 -7 10 -10 11
-10 3 0 -27 -17 -10 -55 58 -46 82 -69 107 -56 61 5 -16 14 -39 21 -51 6 -13
10 -25 7 -27 -3 -3 -28 39 -57 93 -29 54 -66 118 -83 143 -33 49 -157 176
-222 229 -51 42 -38 37 75 -24z m954 3 c-68 -60 -73 -66 -124 -136 -47 -66
-69 -79 -26 -15 31 45 34 63 6 38 -11 -10 -20 -24 -20 -32 0 -7 -4 -13 -8 -13
-5 0 -18 -26 -31 -57 -12 -32 -27 -69 -32 -81 -5 -13 -18 -26 -29 -29 -11 -3
-20 -9 -20 -14 0 -4 -10 -24 -22 -44 -17 -30 -23 -34 -30 -22 -6 11 -1 24 17
43 29 31 25 44 -13 45 -26 0 -26 1 -4 9 12 5 22 17 22 26 0 10 5 14 16 10 8
-3 12 -2 9 3 -3 5 7 11 21 13 27 3 32 8 54 63 40 99 42 101 170 186 92 60 109
63 44 7z m-3019 -37 c37 -22 37 -31 0 -73 -82 -91 -122 -144 -118 -158 4 -12
2 -12 -5 -2 -6 10 -43 -23 -138 -124 -71 -75 -130 -140 -132 -145 -2 -5 -8 -9
-14 -9 -6 0 -8 6 -5 14 4 10 0 12 -14 9 -19 -5 -27 -23 -10 -23 5 0 9 -11 9
-24 0 -23 -3 -24 -27 -13 -36 15 -92 65 -113 99 -24 39 -23 47 3 14 23 -29 66
-35 75 -11 4 8 11 15 16 15 6 0 7 -7 4 -16 -3 -8 -2 -12 4 -9 6 3 10 15 10 26
0 18 403 450 418 448 4 0 21 -8 37 -18z m151 -131 c19 0 34 -5 34 -10 0 -6
-28 -45 -63 -88 -34 -42 -74 -93 -89 -112 -14 -19 -39 -49 -55 -67 -15 -17
-45 -51 -65 -75 -86 -102 -106 -120 -119 -113 -9 6 -11 3 -6 -10 5 -11 -1 -29
-18 -51 -14 -18 -25 -37 -25 -42 0 -14 58 -62 74 -62 15 0 96 88 96 104 0 6 7
0 16 -12 12 -18 13 -26 4 -37 -9 -11 -9 -15 -1 -15 6 0 11 5 11 10 0 6 9 10
20 10 11 0 20 4 20 10 0 5 -7 7 -15 4 -8 -4 -15 -1 -15 5 0 6 5 11 10 11 6 0
10 4 10 10 0 5 -6 7 -14 4 -33 -13 -23 21 29 93 71 100 144 194 184 238 17 19
31 39 31 45 0 5 4 10 9 10 5 0 19 15 30 34 18 29 27 34 54 32 49 -4 77 -16 77
-32 0 -8 -4 -13 -8 -10 -9 6 -24 -12 -121 -144 -39 -52 -71 -100 -71 -106 0
-7 -6 -14 -14 -17 -7 -3 -42 -45 -77 -94 -35 -48 -67 -89 -71 -91 -4 -2 -8
-10 -8 -18 0 -8 -7 -17 -15 -20 -8 -4 -15 -11 -15 -18 -1 -6 -15 -27 -33 -47
-29 -33 -35 -35 -66 -27 -20 6 -59 34 -98 73 -36 35 -72 67 -82 70 -9 3 -34
20 -54 39 -21 19 -44 37 -52 40 -15 5 -21 36 -7 36 4 0 13 -9 20 -20 8 -13 23
-20 43 -20 16 0 28 -4 25 -8 -2 -4 -1 -14 5 -22 6 -11 9 -4 9 23 0 20 2 37 4
37 18 0 36 -15 36 -30 0 -10 8 -24 18 -31 15 -12 16 -12 4 2 -7 9 -10 24 -6
32 3 10 -2 21 -14 28 -19 12 -19 15 21 63 48 58 58 67 69 60 4 -3 6 1 3 8 -3
7 10 29 28 49 36 41 50 57 121 144 82 99 120 136 134 130 8 -3 29 -5 48 -5z
m3119 -100 c-10 -11 -19 -37 -19 -57 -1 -20 -7 -38 -14 -41 -19 -6 -14 -22 8
-22 13 0 20 -7 20 -18 0 -11 9 -27 20 -37 34 -31 90 -141 109 -217 18 -71 20
-149 3 -172 -4 -6 -8 -26 -8 -43 1 -19 -5 -35 -13 -38 -7 -3 -11 -12 -7 -20 3
-10 -6 -21 -27 -32 l-32 -17 25 -6 c20 -5 15 -8 -30 -18 -59 -13 -221 -2 -243
16 -7 5 -27 13 -44 17 -23 5 -33 12 -33 26 0 23 -2 23 60 -1 78 -31 147 -35
195 -10 l40 20 -35 -7 c-80 -16 -172 5 -234 52 -51 39 -104 148 -112 228 -4
44 -2 67 6 72 8 5 9 -3 4 -30 -5 -27 -4 -36 4 -31 7 4 26 -3 44 -16 41 -29 49
-39 43 -57 -14 -36 85 -91 164 -91 27 0 53 5 56 10 6 10 68 40 92 46 18 3 47
34 39 41 -3 3 -2 11 3 17 5 7 -5 37 -26 76 -31 60 -35 61 -18 4 8 -32 -20 -38
-33 -8 -8 16 -17 22 -29 18 -12 -4 -14 -3 -6 3 9 6 9 17 0 46 -7 20 -15 37
-19 37 -5 0 -8 12 -8 26 0 24 -52 84 -73 84 -5 0 -6 9 -2 19 6 19 -11 39 -23
26 -3 -3 0 -10 8 -15 9 -6 10 -10 3 -10 -6 0 -15 -9 -18 -20 -3 -11 -12 -20
-19 -20 -7 0 -17 -27 -25 -62 -19 -91 -21 -92 -16 -6 3 57 1 77 -9 81 -8 3
-18 -4 -24 -17 -11 -25 -50 -32 -59 -10 -8 21 16 46 38 39 14 -5 19 -1 19 13
0 29 70 98 115 113 22 7 49 19 60 26 11 7 37 13 59 13 39 0 39 0 21 -20z m472
-1 c6 -6 26 -14 45 -18 31 -6 37 -14 103 -147 39 -77 115 -234 170 -350 55
-115 134 -278 175 -362 l76 -153 -47 -25 c-27 -13 -51 -24 -53 -24 -5 0 -56
105 -56 114 0 2 -39 87 -86 188 -78 166 -133 287 -290 643 -29 66 -58 121 -64
123 -11 4 -4 22 9 22 4 0 12 -5 18 -11z m-71 -89 c18 -41 69 -163 114 -270 44
-107 89 -215 100 -240 11 -25 60 -144 111 -265 50 -121 98 -228 106 -237 15
-17 12 -20 -42 -43 -32 -14 -58 -25 -59 -23 -23 45 -46 101 -46 109 0 6 -6 25
-14 42 -17 38 -139 347 -171 432 -12 33 -59 154 -104 269 -44 116 -81 218 -81
227 0 10 -4 19 -9 21 -5 2 -13 16 -17 31 -6 28 -6 28 36 25 l43 -3 33 -75z
m-1692 43 c35 -20 106 -93 106 -108 0 -11 5 -15 15 -12 8 4 17 1 21 -5 5 -7 2
-8 -6 -3 -10 6 -12 -2 -8 -38 l5 -45 -28 10 c-16 5 -32 14 -35 19 -3 5 -10 7
-15 4 -5 -4 -9 -1 -9 6 0 7 -9 32 -21 55 -20 42 -73 84 -105 84 -18 0 -44 24
-44 39 0 12 101 7 124 -6z m-1463 -3 c16 0 29 -4 29 -9 0 -5 -25 -47 -55 -93
-106 -162 -240 -359 -252 -373 -7 -7 -13 -16 -13 -19 0 -13 -44 -55 -51 -50
-5 3 -6 -1 -4 -8 3 -8 -7 -30 -22 -51 -21 -27 -33 -35 -48 -30 -28 8 -30 12
-17 25 8 8 15 8 27 -2 13 -10 15 -9 15 9 0 11 -4 21 -10 21 -15 0 -12 27 5 44
8 8 15 18 15 21 0 4 -7 5 -15 1 -10 -3 -15 1 -15 14 0 24 16 35 24 15 3 -8 12
-15 20 -15 8 0 16 -6 19 -12 3 -9 9 -7 20 7 8 11 13 22 11 25 -3 2 -9 -1 -13
-8 -10 -16 -39 -5 -44 16 -6 25 34 94 51 87 7 -3 18 -5 23 -5 5 0 9 -4 9 -9 0
-5 -11 -8 -25 -5 -31 5 -33 -11 -2 -20 15 -4 25 -1 32 10 6 9 19 31 31 49 16
23 18 32 7 32 -7 0 -16 -11 -19 -24 -6 -23 -34 -33 -34 -12 0 5 -4 7 -10 4
-15 -9 -12 8 5 30 8 11 53 75 100 143 47 67 94 131 105 142 11 11 20 26 20 34
0 16 19 26 38 20 8 -2 27 -4 43 -4z m2394 -81 c-59 -95 -79 -165 -72 -245 7
-75 51 -186 97 -244 30 -38 34 -55 5 -26 -56 56 -122 220 -126 312 -2 55 30
214 43 214 4 0 8 6 8 14 0 20 50 54 71 49 14 -4 11 -15 -26 -74z m-2162 41
c-3 -11 -9 -20 -14 -20 -5 0 -22 -26 -37 -57 -16 -32 -38 -74 -49 -93 -11 -19
-51 -87 -88 -150 -37 -63 -87 -143 -111 -177 -24 -34 -44 -66 -44 -72 0 -6 -3
-11 -7 -11 -5 0 -13 -10 -19 -23 -36 -72 -47 -87 -63 -87 -25 0 -32 10 -20 31
12 23 31 26 23 4 -4 -8 -2 -15 4 -15 14 0 23 28 11 35 -5 4 -7 11 -3 16 3 5 9
7 14 4 5 -3 11 -1 14 4 9 15 -4 40 -25 46 -10 4 -19 13 -19 21 0 10 5 9 20 -6
23 -23 29 -24 50 -10 13 8 13 13 -2 40 -10 17 -15 37 -12 45 4 8 1 15 -6 15
-6 0 -8 5 -5 10 4 6 11 8 16 5 5 -4 9 -2 9 4 0 5 5 22 11 38 10 26 12 26 19 8
5 -12 3 -26 -5 -35 -20 -24 -24 -57 -8 -57 9 0 13 7 10 18 -3 10 3 25 13 34
16 14 16 20 5 42 -16 30 -7 54 51 136 19 26 34 50 34 53 0 7 117 183 137 206
8 9 28 16 44 16 16 -1 32 2 36 5 11 12 21 -3 16 -23z m407 20 c0 -5 7 -10 16
-10 9 0 14 -6 11 -12 -2 -7 -16 -12 -31 -10 -16 2 -26 -2 -26 -10 0 -7 -3 -23
-6 -35 -5 -17 -1 -22 18 -26 17 -3 15 -5 -10 -6 -22 -1 -32 -5 -30 -13 3 -7
-1 -19 -9 -26 -7 -7 -13 -22 -13 -31 0 -10 -7 -24 -15 -31 -8 -7 -15 -16 -15
-21 0 -4 -18 -46 -40 -93 -22 -47 -40 -88 -40 -91 0 -4 -9 -19 -19 -34 -11
-15 -23 -40 -27 -57 -4 -16 -20 -50 -35 -75 -14 -25 -30 -57 -34 -70 -4 -13
-24 -60 -46 -105 -21 -44 -39 -83 -39 -86 0 -3 -16 -34 -35 -68 -19 -34 -35
-65 -35 -68 1 -9 67 -42 84 -42 8 0 19 -7 26 -15 7 -8 34 -18 62 -21 27 -4 55
-13 62 -20 8 -7 27 -16 42 -20 16 -4 36 -12 44 -20 23 -20 66 -27 89 -14 17 8
21 8 21 -3 0 -14 60 -47 88 -47 9 0 26 -7 36 -15 24 -18 76 -20 76 -3 0 6 6 4
13 -5 6 -10 30 -20 52 -24 22 -3 48 -13 58 -21 10 -9 41 -17 70 -19 88 -4 146
-15 158 -29 8 -10 38 -14 109 -14 84 0 99 -3 115 -20 25 -28 85 -28 92 1 4 15
8 17 14 8 10 -16 54 -23 75 -11 12 6 23 2 40 -15 26 -26 70 -28 113 -7 30 16
91 7 116 -17 19 -19 18 -19 -45 -18 -150 2 -445 30 -550 53 -36 8 -87 17 -115
21 -45 5 -162 33 -399 95 -44 12 -95 29 -115 39 -20 9 -61 23 -91 31 -30 7
-84 27 -120 45 -36 18 -81 36 -100 40 -19 4 -60 21 -90 39 -30 17 -80 39 -111
49 -30 9 -74 33 -96 52 -23 19 -48 35 -56 35 -27 0 -103 39 -127 66 l-25 27
30 -15 c51 -26 79 -38 112 -47 26 -8 31 -7 26 5 -3 8 -10 14 -16 14 -6 0 -8 3
-5 6 3 3 15 0 27 -7 13 -9 19 -20 15 -34 -4 -17 3 -24 34 -38 21 -9 46 -17 55
-17 10 0 17 -6 17 -14 0 -21 61 -29 79 -11 13 13 14 17 2 24 -9 6 -10 11 -2
15 6 4 11 2 11 -3 0 -6 5 -11 11 -11 6 0 9 8 6 19 -2 10 4 29 14 42 10 13 19
32 19 41 0 9 4 19 9 22 5 3 7 15 4 26 -4 15 -2 19 10 15 18 -8 31 46 14 57 -8
5 -6 8 6 8 23 0 34 29 16 41 -11 7 -11 9 4 9 9 0 17 7 17 15 0 8 4 15 9 15 8
0 24 37 22 52 -3 21 43 137 52 131 6 -4 8 0 4 10 -4 10 4 26 23 44 17 15 30
32 30 38 0 5 -5 3 -10 -5 -6 -9 -10 -10 -10 -3 0 6 -3 19 -7 29 -5 13 -3 16
10 11 22 -8 32 10 16 29 -7 8 -8 14 -3 13 21 -4 34 2 44 21 9 16 8 18 -5 14
-19 -8 -19 5 0 30 15 19 15 19 15 1 0 -14 3 -16 12 -7 8 8 8 15 -1 26 -7 8
-10 20 -6 27 6 8 10 7 16 -2 6 -10 12 -3 24 23 20 50 19 68 -4 68 -54 0 -25
45 42 66 53 16 57 16 57 4z m378 -19 c20 -27 21 -61 3 -61 -4 0 -8 -21 -10
-46 -1 -30 2 -44 8 -39 6 3 11 2 11 -4 0 -16 -18 -22 -23 -9 -2 7 -8 10 -12 6
-4 -4 -2 -14 4 -22 10 -11 8 -23 -9 -55 -11 -23 -25 -41 -31 -41 -5 0 -23 -14
-39 -30 -39 -40 -39 -23 0 20 17 18 30 42 30 52 0 10 5 18 11 18 6 0 9 6 6 14
-3 7 0 19 6 26 9 10 9 11 0 6 -7 -4 -13 -3 -13 3 0 5 4 11 9 13 14 5 25 108
12 108 -7 0 -9 -9 -5 -24 4 -16 1 -25 -10 -29 -19 -8 -21 -33 -3 -40 6 -3 3
-6 -8 -6 -15 -1 -24 -14 -37 -54 -10 -33 -13 -54 -6 -58 5 -4 3 -9 -5 -12 -8
-3 -20 -21 -25 -39 -50 -166 -77 -244 -84 -246 -4 -2 -6 -8 -3 -12 3 -5 -1
-26 -9 -47 -7 -21 -19 -58 -26 -83 -7 -25 -19 -59 -26 -77 -8 -17 -14 -37 -14
-45 0 -7 -7 -23 -15 -35 -10 -14 -12 -24 -5 -28 16 -10 11 -25 -6 -18 -12 5
-15 2 -11 -13 4 -11 -2 -29 -14 -43 -25 -31 -30 -25 -19 24 6 26 5 42 -1 46
-6 3 -2 8 9 11 11 3 22 18 26 34 13 55 38 139 51 169 25 60 48 131 49 153 1
12 4 22 8 22 4 0 5 7 2 15 -4 8 -1 15 4 15 14 0 65 158 58 177 -3 8 -2 11 4 8
11 -7 29 57 28 100 -2 54 2 67 15 62 8 -3 18 8 26 27 7 17 16 38 21 47 4 9 4
22 0 29 -12 20 0 40 24 40 13 0 31 -12 44 -29z m-568 9 c13 -8 12 -10 -3 -10
-10 0 -24 -15 -35 -37 -9 -21 -20 -39 -24 -41 -5 -2 -8 -11 -8 -20 0 -17 -7
-31 -54 -112 -35 -61 -47 -90 -41 -100 3 -4 -2 -10 -10 -14 -8 -3 -15 -12 -15
-20 0 -8 -3 -16 -7 -18 -5 -1 -19 -23 -32 -48 -43 -82 -112 -206 -129 -235 -4
-5 -7 -12 -8 -15 -3 -17 -29 -60 -36 -60 -5 0 -7 -4 -4 -9 3 -5 -1 -14 -9 -21
-13 -10 -15 -8 -15 13 0 14 6 27 14 30 8 3 17 19 21 36 3 16 13 35 21 41 15
14 9 34 -8 24 -6 -4 -9 -1 -6 7 3 8 14 15 25 17 12 2 23 12 26 22 3 13 0 17
-9 13 -8 -3 -14 1 -14 11 0 9 5 16 11 16 6 0 8 9 4 23 -5 19 -4 20 5 5 14 -22
42 -24 34 -3 -4 10 0 15 11 15 14 0 15 3 5 15 -10 12 -9 16 5 21 12 5 15 14
11 30 -4 14 -2 24 4 24 5 0 10 -5 10 -12 0 -6 3 -8 7 -5 3 4 -1 15 -10 25 -11
12 -13 22 -6 32 8 13 10 13 19 0 8 -13 10 -12 10 3 0 15 -11 22 -33 18 -13 -2
-4 42 10 46 7 3 9 -3 6 -16 -3 -12 -1 -21 6 -21 7 0 11 6 10 13 -3 25 1 38 11
32 6 -3 10 -2 10 4 0 16 -18 22 -23 9 -2 -7 -7 -10 -11 -7 -3 3 6 27 20 53 19
34 30 44 37 37 14 -14 40 -14 32 -1 -3 6 -2 10 4 10 5 0 11 -3 14 -7 2 -5 2
-2 0 5 -1 8 -3 23 -3 34 0 11 -5 18 -12 15 -7 -2 -12 -12 -12 -21 1 -9 -4 -16
-12 -16 -10 0 0 26 29 83 46 87 42 84 132 95 6 1 17 -3 25 -8z m410 0 c0 -5
-5 -10 -11 -10 -6 0 -8 -9 -4 -20 5 -14 2 -20 -10 -20 -9 0 -13 -5 -10 -10 4
-6 11 -8 16 -5 5 4 12 0 15 -9 3 -8 12 -12 20 -9 17 6 14 -31 -4 -49 -9 -9
-12 -8 -12 6 0 10 -12 21 -29 27 -22 8 -28 15 -24 27 6 15 5 15 -11 2 -11 -8
-14 -16 -7 -18 6 -2 11 -8 11 -14 0 -6 -6 -8 -13 -5 -15 6 -47 -60 -50 -103
-1 -16 -5 -26 -9 -23 -5 2 -8 -3 -8 -11 0 -8 8 -20 18 -25 14 -9 13 -10 -10
-11 -16 0 -28 -3 -28 -7 0 -5 -3 -19 -6 -33 -4 -20 -3 -22 5 -10 9 12 11 11
11 -8 0 -13 -4 -21 -9 -17 -13 7 -41 -23 -41 -44 0 -9 -4 -21 -8 -27 -5 -5
-17 -31 -27 -59 -10 -27 -28 -74 -41 -103 -13 -29 -24 -57 -24 -62 0 -16 -45
-110 -52 -110 -10 0 -9 29 2 55 5 14 2 26 -9 39 -15 18 -15 18 6 12 22 -7 47
14 24 22 -8 3 -7 8 4 16 10 7 19 32 22 59 3 26 9 45 13 42 4 -2 17 16 29 41
19 38 21 47 9 61 -11 15 -11 16 5 10 18 -7 25 17 7 28 -5 3 -10 11 -10 18 0 8
3 8 11 0 9 -9 16 -8 27 3 12 12 12 20 3 41 -9 21 -9 28 1 34 6 4 16 5 22 2 5
-4 7 3 4 15 -4 12 -2 22 3 22 4 0 6 7 2 16 -4 10 1 22 11 30 10 7 15 17 12 23
-4 5 1 14 11 19 14 8 15 13 4 26 -16 19 -6 37 17 30 14 -5 15 -4 2 5 -23 17
-40 13 -51 -11 -14 -33 -4 6 15 57 12 32 19 40 39 40 14 -1 23 3 21 7 -3 4 18
8 45 8 28 0 51 -4 51 -10z m2174 -140 c34 -62 61 -138 92 -250 34 -127 233
-691 250 -711 8 -8 14 -18 14 -22 0 -12 -110 -41 -119 -31 -4 5 -40 108 -80
230 l-71 220 2 130 c4 185 -14 260 -92 374 -42 62 -63 130 -53 170 6 21 8 18
19 -20 7 -25 24 -65 38 -90z m-1749 -47 c-15 -35 -3 -81 14 -54 7 10 9 10 14
-3 3 -8 1 -17 -6 -20 -9 -5 -9 -7 1 -12 6 -3 10 -10 7 -14 -8 -13 -35 0 -35
16 0 8 -4 14 -10 14 -12 0 -13 -6 -1 -29 7 -13 5 -21 -8 -31 -18 -12 -18 -15
4 -61 28 -62 41 -76 86 -100 41 -21 163 -27 174 -9 3 5 15 15 26 20 26 15 26
-13 -1 -40 -28 -28 -25 -43 5 -38 21 4 23 3 13 -9 -20 -24 -81 -51 -146 -64
-55 -11 -60 -14 -42 -24 20 -11 20 -12 3 -28 -17 -15 -22 -14 -68 15 -53 33
-67 47 -59 60 3 4 -6 12 -19 17 -18 7 -26 20 -31 46 -8 43 0 60 10 21 7 -30
39 -56 69 -56 20 0 20 1 -1 18 -11 9 -36 37 -55 62 -33 43 -34 47 -34 133 0
74 3 90 18 98 9 6 17 14 17 20 0 14 42 69 53 69 5 0 6 -8 2 -17z m799 -73 c12
-100 18 -130 28 -136 6 -4 14 -1 18 6 21 35 80 -30 94 -103 4 -20 11 -37 16
-37 4 0 11 -13 15 -29 13 -61 119 -177 195 -215 97 -49 233 -57 312 -18 35 18
38 18 24 3 -51 -56 -295 -56 -408 0 -43 22 -128 119 -162 187 -24 47 -71 100
-81 90 -8 -7 -8 -50 -1 -83 5 -26 4 -25 -14 10 -11 22 -18 46 -15 53 2 7 -2
38 -10 70 -7 31 -17 104 -20 162 -8 110 -1 135 9 40z m1040 -800 c15 -52 34
-102 42 -111 8 -8 14 -18 14 -21 0 -6 -119 -42 -124 -37 -6 7 -76 274 -76 290
0 8 13 23 30 32 16 10 35 28 41 40 11 20 14 16 29 -38 9 -33 29 -103 44 -155z
m-888 74 c-4 -9 -1 -23 5 -31 7 -8 14 -55 15 -106 6 -162 12 -209 31 -222 25
-19 15 -24 -55 -31 -69 -8 -100 -1 -84 19 5 6 8 22 7 35 -2 30 15 40 22 13 4
-16 9 -19 18 -11 7 6 21 7 31 3 17 -6 17 -5 5 10 -12 15 -11 17 3 17 9 0 16 4
16 10 0 5 -7 7 -15 4 -18 -7 -20 7 -2 26 6 8 1 6 -12 -5 -14 -11 -21 -15 -18
-8 4 6 3 14 -2 18 -6 3 -15 -5 -22 -17 -12 -22 -12 -22 -19 -2 -4 11 -11 68
-15 128 l-8 108 29 29 c32 31 80 40 70 13z m-405 -72 c-7 -14 -13 -94 -12
-164 0 -24 -16 -23 -29 1 -7 14 -6 21 3 24 6 3 2 6 -10 6 -25 1 -29 -9 -11
-27 9 -9 8 -12 -4 -12 -9 0 -18 6 -21 13 -2 6 -8 8 -13 4 -4 -4 -3 -17 4 -27
10 -16 10 -20 0 -18 -7 2 -14 -4 -14 -12 -5 -47 -7 -51 -13 -15 -3 22 -2 43 3
47 6 4 5 12 -2 21 -7 7 -9 17 -5 21 4 3 8 39 9 79 1 39 3 75 3 79 1 4 18 10
39 13 20 3 44 10 52 14 19 11 34 -23 21 -47z m121 -14 c-3 -13 -1 -19 5 -15 5
3 26 -8 47 -25 35 -28 37 -34 34 -77 -3 -42 -6 -46 -31 -49 -20 -2 -27 1 -27
13 0 12 6 15 21 10 16 -5 20 -3 17 6 -3 8 -11 14 -19 14 -8 0 -17 7 -21 15 -5
11 -7 9 -7 -7 -1 -12 -6 -25 -12 -29 -7 -4 -7 -10 -1 -16 7 -7 6 -15 -4 -26
-8 -8 -17 -12 -20 -10 -2 3 -5 59 -7 126 -2 111 -1 119 14 106 10 -9 15 -24
11 -36z m475 22 c46 -11 44 -6 59 -175 4 -49 12 -76 26 -91 18 -20 18 -22 2
-28 -10 -4 -43 -9 -74 -13 l-57 -6 -7 74 c-4 41 -9 101 -12 134 -2 33 -6 75
-9 93 -3 27 -1 32 13 28 9 -3 36 -10 59 -16z m155 -14 c3 3 23 -4 44 -15 20
-11 41 -18 45 -15 12 7 18 -9 30 -87 6 -41 17 -85 26 -97 8 -13 13 -26 10 -28
-2 -2 -29 -9 -60 -15 -55 -10 -83 -6 -72 10 8 14 -32 235 -44 239 -6 2 -11 8
-11 14 0 7 5 7 13 -1 8 -6 16 -8 19 -5z m327 -34 c5 -21 12 -53 16 -72 4 -19
14 -46 22 -58 8 -13 12 -26 9 -29 -5 -6 -119 -34 -121 -30 -2 4 -38 182 -42
207 -4 24 -3 25 51 22 55 -4 56 -4 65 -40z"/>
<path d="M4080 7127 c0 -4 23 -35 51 -69 90 -108 96 -137 36 -181 l-26 -20
-51 33 c-27 18 -62 46 -76 64 l-25 31 3 -162 c4 -159 10 -195 29 -161 13 24
93 78 115 78 9 0 32 -11 50 -25 50 -38 117 -35 161 7 33 32 33 32 67 16 18 -9
49 -30 69 -47 19 -17 37 -31 41 -31 8 0 7 287 -1 307 -4 11 -16 5 -47 -25 -54
-51 -86 -72 -111 -72 -23 0 -65 38 -65 59 0 20 37 85 79 139 23 28 41 55 41
60 0 5 -76 8 -170 8 -93 -1 -170 -5 -170 -9z"/>
<path d="M5702 5881 c-44 -11 -74 -40 -67 -62 9 -26 -10 -56 -40 -63 -19 -5
-25 -13 -25 -34 0 -15 5 -33 11 -39 6 -6 13 -51 16 -100 4 -70 10 -96 29 -125
13 -20 28 -58 34 -83 16 -71 67 -151 132 -208 33 -29 86 -75 119 -104 93 -84
244 -149 312 -136 32 6 103 58 89 66 -4 3 -38 8 -77 11 -83 8 -148 28 -230 69
-94 46 -171 103 -208 152 -40 51 -112 193 -103 202 9 10 35 -18 30 -32 -10
-26 26 -76 143 -197 93 -96 242 -168 346 -168 57 0 43 7 -46 24 -145 28 -259
103 -363 237 -24 32 -44 60 -44 64 0 13 46 -8 78 -36 61 -54 126 -75 94 -31
-7 9 -16 27 -21 38 -5 12 -17 24 -25 27 -23 9 -20 30 7 46 12 8 51 38 87 66
129 103 254 157 395 170 119 11 155 10 173 -9 15 -15 15 -16 -5 -16 -11 0 -31
-9 -44 -21 l-24 -20 27 5 c21 5 30 1 38 -15 7 -11 9 -26 7 -34 -4 -9 1 -11 15
-7 20 5 21 2 15 -50 -3 -30 -13 -72 -23 -94 -10 -21 -20 -43 -22 -49 -3 -5 1
-4 9 3 27 25 29 11 4 -35 -30 -57 -62 -95 -93 -112 -13 -7 -21 -15 -19 -18 3
-3 37 15 75 40 123 79 209 239 200 368 -10 143 -124 212 -448 269 -176 32
-502 55 -558 41z m308 -93 c19 2 106 3 193 3 164 0 289 -17 353 -47 54 -26 94
-78 93 -122 l-1 -37 -17 37 c-25 55 -49 77 -95 89 -23 6 -68 20 -101 31 -47
16 -83 20 -165 18 -58 -1 -112 -2 -120 -2 -8 0 -38 -11 -67 -24 -67 -32 -175
-53 -181 -36 -2 7 -8 12 -14 12 -6 0 -19 9 -29 21 -10 11 -22 18 -27 15 -6 -3
-12 0 -15 8 -9 23 60 47 113 38 25 -3 61 -5 80 -4z"/>
<path d="M7042 5250 c-24 -10 -72 -57 -72 -71 0 -4 37 -6 83 -3 79 5 85 4 154
-30 85 -41 107 -72 89 -124 -14 -42 -103 -133 -122 -125 -8 3 -20 1 -27 -5 -7
-6 -30 -12 -52 -14 l-40 -3 37 -18 c20 -11 42 -15 49 -11 7 4 9 3 5 -4 -16
-27 46 -36 89 -13 90 48 153 129 171 219 10 51 -62 160 -130 196 -31 16 -41
18 -75 8 -47 -15 -91 -15 -91 -2 0 12 -37 12 -68 0z"/>
<path d="M6231 4646 c-19 -7 -38 -22 -42 -34 -5 -12 -13 -22 -19 -22 -5 0 -10
-4 -10 -9 0 -5 23 2 51 15 l50 25 31 -33 c19 -21 32 -47 36 -71 5 -42 27 -57
81 -57 34 0 47 32 28 66 -7 12 -22 39 -34 62 -14 25 -34 45 -55 53 -18 7 -37
15 -43 17 -5 3 4 -11 21 -29 35 -37 58 -78 50 -86 -2 -3 -28 16 -55 42 -40 38
-49 51 -40 61 14 18 -2 18 -50 0z"/>
<path d="M5995 3180 c-4 -6 -11 -7 -17 -4 -12 8 -28 -14 -28 -38 0 -12 8 -18
22 -18 20 0 21 -1 3 -20 -14 -16 -15 -20 -4 -20 14 0 71 -85 118 -175 11 -22
37 -58 57 -80 l36 -40 -6 83 c-11 148 -77 302 -130 302 -8 0 -18 5 -21 10 -8
13 -22 13 -30 0z"/>
<path d="M5118 2065 c-42 -39 -129 -90 -183 -107 -97 -32 -199 -70 -234 -87
-20 -10 -62 -26 -94 -35 -32 -9 -55 -21 -52 -26 7 -11 -68 -70 -90 -70 -9 0
-13 5 -10 10 11 17 -11 11 -28 -8 -14 -15 -17 -39 -16 -128 1 -90 3 -103 11
-74 20 72 42 126 60 152 22 31 132 99 218 134 62 25 196 90 298 145 54 29 167
117 152 119 -3 0 -17 -11 -32 -25z"/>
<path d="M1443 5193 c-7 -2 -13 -10 -13 -17 0 -7 -16 -12 -39 -13 -45 -2 -61
-15 -111 -93 -63 -98 -65 -105 -51 -158 6 -26 22 -56 33 -67 l21 -20 -16 26
c-11 19 -15 42 -12 80 7 85 10 94 34 93 11 0 21 3 21 8 0 5 4 6 10 3 5 -3 21
2 34 11 26 17 102 15 115 -3 9 -14 171 -6 186 9 30 30 -63 116 -147 137 -26 6
-48 11 -50 10 -2 0 -9 -3 -15 -6z"/>
<path d="M1980 5113 c0 -5 18 -37 40 -73 22 -36 57 -100 77 -142 21 -42 44
-77 50 -78 7 0 15 -11 19 -25 3 -14 10 -25 15 -25 5 0 9 11 9 25 0 14 4 25 9
25 19 0 19 45 0 83 -10 23 -19 46 -19 52 0 14 -84 110 -118 133 -30 21 -82 37
-82 25z"/>
<path d="M4216 5431 c-6 -10 7 -96 41 -256 26 -127 41 -169 44 -125 5 88 -10
302 -22 321 -6 9 -7 -23 -4 -86 3 -75 2 -89 -5 -55 -5 25 -9 72 -9 105 -1 33
-4 70 -7 83 -6 22 -28 30 -38 13z"/>
<path d="M3555 8466 c-39 -13 -39 -13 -14 -20 26 -7 45 -48 40 -83 -1 -7 6
-13 16 -13 15 0 15 -2 3 -9 -12 -8 -12 -17 4 -66 10 -31 15 -59 12 -62 -3 -3
1 -21 9 -40 8 -20 15 -46 15 -58 0 -18 16 -35 35 -35 11 0 13 55 4 96 -5 27
-10 57 -10 66 0 10 -5 20 -10 24 -6 4 -6 11 2 20 9 11 9 14 -1 14 -7 0 -10 7
-7 15 4 8 1 42 -5 75 -8 46 -7 64 2 75 11 13 7 15 -21 14 -19 0 -52 -6 -74
-13z"/>
<path d="M3400 8439 c-75 -14 -160 -39 -120 -35 19 2 41 1 48 -1 16 -6 42 -67
42 -99 0 -12 5 -26 10 -29 6 -4 8 -10 5 -15 -3 -5 1 -23 10 -39 8 -16 12 -37
9 -45 -3 -9 -2 -16 3 -16 5 0 15 -23 22 -51 8 -28 19 -63 26 -77 8 -13 11 -31
8 -38 -3 -8 0 -14 7 -14 7 0 10 -7 6 -15 -4 -10 2 -19 16 -24 14 -5 17 -10 10
-15 -17 -10 -15 -26 2 -26 24 0 28 18 13 50 -8 16 -11 30 -7 32 5 2 1 19 -9
38 -9 19 -15 43 -13 52 2 10 -2 44 -9 75 -7 32 -13 65 -14 73 -1 8 -10 55 -20
104 -14 69 -15 93 -6 108 6 10 10 17 9 17 -2 -1 -23 -5 -48 -10z"/>
<path d="M3133 8379 c-35 -10 -42 -23 -18 -33 18 -6 30 -35 56 -131 33 -120
61 -205 70 -211 5 -3 9 -18 9 -34 0 -16 6 -35 13 -42 6 -7 14 -22 15 -33 2
-11 7 -24 12 -30 4 -5 11 -26 15 -45 6 -35 46 -120 55 -120 3 0 11 4 19 9 13
8 12 15 -2 48 -10 21 -21 61 -27 90 -5 29 -14 60 -19 70 -5 10 -19 59 -31 108
-11 50 -26 105 -31 123 -6 18 -12 43 -15 57 -2 13 -8 35 -13 48 -5 13 -12 49
-16 80 -7 53 -9 57 -34 56 -14 0 -41 -5 -58 -10z"/>
<path d="M2918 8313 c-22 -6 -23 -17 -3 -33 8 -7 15 -18 15 -24 0 -7 12 -41
26 -77 14 -35 30 -77 34 -94 10 -37 37 -113 50 -140 18 -41 59 -151 66 -178 3
-16 12 -31 20 -34 7 -2 16 -22 19 -44 4 -22 13 -46 21 -53 8 -8 14 -21 14 -29
0 -13 48 -42 56 -34 2 2 -32 114 -77 248 -44 134 -82 249 -83 255 -2 12 -41
136 -63 202 -13 38 -18 42 -46 41 -18 -1 -40 -3 -49 -6z"/>
<path d="M2293 8050 c-33 -20 -45 -37 -19 -27 8 3 21 0 29 -6 9 -7 62 -97 118
-202 56 -104 136 -248 177 -320 42 -71 89 -155 105 -185 65 -122 94 -152 125
-132 9 6 0 32 -36 103 -27 52 -96 184 -152 294 -57 110 -130 254 -162 320 -32
66 -64 131 -71 145 -17 33 -70 38 -114 10z"/>
<path d="M1587 7593 c-34 -31 -64 -62 -66 -68 -2 -5 2 -4 10 3 23 21 45 13 78
-28 64 -80 523 -611 592 -685 62 -67 201 -227 248 -285 25 -30 55 -66 68 -80
100 -110 96 -107 121 -91 11 6 -12 39 -90 134 -56 68 -137 167 -178 218 -41
51 -100 123 -130 161 -30 37 -73 91 -95 119 -22 29 -45 57 -50 63 -6 6 -46 56
-90 110 -44 55 -142 177 -218 270 -109 136 -136 176 -132 194 3 12 3 22 0 22
-3 0 -33 -26 -68 -57z"/>
<path d="M1276 7328 c-25 -24 -47 -47 -48 -53 -1 -5 36 -46 82 -89 47 -44 137
-130 201 -190 142 -136 319 -301 462 -429 100 -90 110 -97 149 -97 l42 0 -397
398 c-218 218 -408 411 -422 427 -17 20 -24 37 -20 53 3 12 3 22 1 22 -2 0
-25 -19 -50 -42z"/>
<path d="M1105 7150 c-27 -33 -53 -60 -57 -60 -5 0 -8 -5 -8 -10 0 -7 6 -7 19
0 11 5 24 10 28 10 5 0 54 -39 109 -87 55 -49 124 -108 154 -133 30 -25 72
-61 94 -81 23 -20 126 -107 229 -193 173 -143 192 -156 228 -156 21 0 39 4 39
9 0 4 -24 30 -52 57 -29 26 -83 75 -119 108 -62 58 -213 194 -249 226 -10 8
-62 56 -116 106 -114 105 -176 160 -221 200 -26 22 -30 31 -22 46 19 36 -7 16
-56 -42z"/>
<path d="M7644 5934 c4 -12 1 -14 -14 -9 -11 4 -20 2 -20 -4 0 -6 -9 -11 -20
-11 -11 0 -20 -4 -20 -10 0 -5 -7 -10 -15 -10 -8 0 -15 -5 -15 -11 0 -6 -9 -8
-21 -4 -18 6 -20 4 -14 -14 7 -23 -4 -28 -23 -9 -8 8 -12 9 -12 1 0 -6 -15
-15 -32 -18 -18 -4 -44 -15 -58 -25 -14 -10 -40 -21 -57 -25 -18 -3 -33 -11
-33 -16 0 -5 -7 -9 -15 -9 -8 0 -15 -4 -15 -10 0 -5 -8 -10 -18 -10 -24 0 -82
-29 -82 -40 0 -18 22 -22 53 -9 129 50 197 82 197 91 0 4 9 8 20 8 12 0 20 7
20 16 0 10 6 14 15 10 8 -3 15 -1 15 3 0 5 8 7 19 4 10 -2 25 3 34 11 8 9 20
16 26 16 6 0 11 5 11 11 0 6 8 8 19 4 13 -4 24 2 36 21 12 19 20 23 28 15 6
-6 14 -11 17 -11 9 0 6 32 -4 48 -11 18 -29 15 -22 -4z"/>
<path d="M7948 5618 c5 -22 5 -22 -12 -5 -23 23 -24 22 -18 -10 l5 -28 -19 23
c-17 20 -23 22 -46 13 -20 -8 -26 -15 -21 -28 5 -16 4 -16 -9 1 -14 18 -16 18
-39 3 -13 -10 -34 -17 -46 -17 -13 0 -23 -4 -23 -10 0 -5 -7 -7 -15 -4 -10 4
-15 0 -15 -12 0 -13 -3 -15 -11 -7 -12 12 -59 -2 -59 -17 0 -4 -12 -7 -26 -7
-14 0 -35 -5 -47 -11 -12 -5 -50 -20 -84 -32 -35 -12 -60 -26 -58 -30 14 -22
66 -19 160 11 55 17 134 42 175 54 41 13 109 37 150 53 41 15 78 29 83 30 16
4 0 52 -18 52 -9 0 -11 -7 -7 -22z"/>
<path d="M8045 5465 c-52 -13 -141 -40 -145 -45 -3 -3 -34 -13 -70 -22 -90
-22 -243 -67 -249 -74 -3 -3 3 -12 13 -20 21 -15 77 -20 75 -6 -3 19 2 25 11
12 8 -13 20 -12 97 8 48 13 131 36 183 52 52 16 121 36 154 46 39 11 54 19 45
24 -7 5 -17 6 -22 3 -5 -3 -13 0 -17 8 -8 12 -50 20 -75 14z"/>
</g>
</svg>
